<svg width="56" height="56" viewBox="0 0 56 56" fill="none" xmlns="http://www.w3.org/2000/svg">
    <circle cx="28" cy="28" r="28" fill="#EB5757"/>
    <path d="M35.875 19H31.75V18.25C31.75 17.0073 30.7427 16 29.5 16H26.5C25.2573 16 24.25 17.0073 24.25 18.25V19H20.125C19.0895 19 18.25 19.8395 18.25 20.875V22.375C18.25 22.7892 18.5858 23.125 19 23.125H37C37.4142 23.125 37.75 22.7892 37.75 22.375V20.875C37.75 19.8395 36.9105 19 35.875 19ZM25.75 18.25C25.75 17.8366 26.0866 17.5 26.5 17.5H29.5C29.9134 17.5 30.25 17.8366 30.25 18.25V19H25.75V18.25Z" fill="white"/>
    <path d="M19.6733 24.625C19.5395 24.625 19.4329 24.7368 19.4392 24.8705L20.058 37.8569C20.1152 39.0588 21.1024 40 22.3052 40H33.6949C34.8977 40 35.8849 39.0588 35.9421 37.8569L36.5608 24.8705C36.5672 24.7368 36.4605 24.625 36.3267 24.625H19.6733ZM31 26.5C31 26.0856 31.3356 25.75 31.75 25.75C32.1644 25.75 32.5 26.0856 32.5 26.5V36.25C32.5 36.6644 32.1644 37 31.75 37C31.3356 37 31 36.6644 31 36.25V26.5ZM27.25 26.5C27.25 26.0856 27.5856 25.75 28 25.75C28.4144 25.75 28.75 26.0856 28.75 26.5V36.25C28.75 36.6644 28.4144 37 28 37C27.5856 37 27.25 36.6644 27.25 36.25V26.5ZM23.5 26.5C23.5 26.0856 23.8356 25.75 24.25 25.75C24.6644 25.75 25 26.0856 25 26.5V36.25C25 36.6644 24.6644 37 24.25 37C23.8356 37 23.5 36.6644 23.5 36.25V26.5Z" fill="white"/>
</svg>
