<svg width="24" height="24" viewBox="0 0 24 24" fill="none" xmlns="http://www.w3.org/2000/svg">
    <path d="M12 24C5.37266 24 0 18.6273 0 12C0 5.37266 5.37266 0 12 0C18.6273 0 24 5.37266 24 12C23.9926 18.6242 18.6242 23.9926 12 24ZM12 0.8C5.81445 0.8 0.8 5.81445 0.8 12C0.8 18.1855 5.81445 23.2 12 23.2C18.1855 23.2 23.2 18.1855 23.2 12C23.193 5.81738 18.1826 0.807031 12 0.8Z" fill="#FFBC0F"/>
    <path fill-rule="evenodd" clip-rule="evenodd" d="M21.5999 11.9999C21.5999 17.3019 17.3019 21.5999 11.9999 21.5999C6.69795 21.5999 2.3999 17.3019 2.3999 11.9999C2.3999 6.69795 6.69795 2.3999 11.9999 2.3999C17.3019 2.3999 21.5999 6.69795 21.5999 11.9999ZM10.4745 7.7038C10.3735 6.7949 11.085 6 11.9995 6C12.914 6 13.6255 6.7949 13.5245 7.7038L12.9513 12.8624C12.8974 13.3474 12.4875 13.7143 11.9995 13.7143C11.5115 13.7143 11.1016 13.3474 11.0477 12.8624L10.4745 7.7038ZM12.0001 17.1429C12.7101 17.1429 13.2858 16.5672 13.2858 15.8571C13.2858 15.1471 12.7101 14.5714 12.0001 14.5714C11.29 14.5714 10.7144 15.1471 10.7144 15.8571C10.7144 16.5672 11.29 17.1429 12.0001 17.1429Z" fill="#FFBC0F"/>
</svg>
