<svg width="18" height="18" viewBox="0 0 18 18" fill="none" xmlns="http://www.w3.org/2000/svg">
<g clip-path="url(#clip0)">
<path d="M15.8815 18.0001H2.11846C1.5273 18.0001 1.0481 17.5209 1.0481 16.9298V15.4408L16.9519 12.5508V16.9298C16.9519 17.5209 16.4727 18.0001 15.8815 18.0001Z" fill="#BAC2CD"/>
<path d="M12.9696 16.9294H2.12025C1.52812 16.9294 1.0481 16.4494 1.0481 15.8573V2.56238C1.0481 1.97026 1.52812 1.49023 2.12025 1.49023H15.8797C16.4718 1.49023 16.9519 1.97026 16.9519 2.56238V12.9472C16.9519 13.2315 16.3037 13.5042 16.1026 13.7053L13.7277 16.0802C13.5267 16.2813 13.254 16.9294 12.9696 16.9294Z" fill="#F1F5F9"/>
<path d="M12.9647 16.9294C13.249 16.9294 13.5217 16.8165 13.7228 16.6154L16.6379 13.7003C16.8389 13.4992 16.9519 13.2265 16.9519 12.9422V12.5078C16.9519 12.993 16.5586 13.3863 16.0735 13.3863H14.2872C13.8021 13.3863 13.4088 13.7796 13.4088 14.2647V16.0509C13.4088 16.5361 13.0155 16.9294 12.5303 16.9294H12.9647V16.9294Z" fill="#DDE3EF"/>
<path d="M16.9518 2.5606V5.3143H1.04828V2.5606C1.04828 1.96976 1.52745 1.49023 2.11865 1.49023H15.8814C16.4726 1.49023 16.9518 1.96976 16.9518 2.5606Z" fill="#61B3FF"/>
<path d="M4.07816 3.35849C3.87401 3.35849 3.70068 3.35838 3.55297 3.35838C3.10413 3.35838 2.73914 2.99338 2.73914 2.5449V1.49023H3.27432V2.5449C3.27432 2.69832 3.39919 2.8232 3.55297 2.8232C3.70068 2.8232 4.22587 3.35849 4.07816 3.35849Z" fill="#519BDF"/>
<path d="M13.7991 3.35849C13.7991 3.35849 13.4217 3.35838 13.2737 3.35838C12.8252 3.35838 12.4602 2.99338 12.4602 2.5449V1.49023H12.9954V2.5449C12.9954 2.69832 13.1203 2.8232 13.2737 2.8232C13.4217 2.8232 13.7991 3.21078 13.7991 3.35849Z" fill="#519BDF"/>
<path d="M4.47952 1.49045V0.813729C4.47952 0.660131 4.35457 0.535183 4.20098 0.535183H4.07813C3.92454 0.535183 3.79959 0.660131 3.79959 0.813729V2.54487C3.79959 2.69847 3.92454 2.82341 4.07813 2.82341C4.22591 2.82341 4.34572 2.94322 4.34572 3.09101C4.34572 3.23879 4.22591 3.3586 4.07813 3.3586C3.62944 3.3586 3.2644 2.99357 3.2644 2.54487V0.813729C3.2644 0.365031 3.62944 0 4.07813 0H4.20098C4.64967 0 5.0147 0.365031 5.0147 0.813729V1.49045H4.47952Z" fill="#554E56"/>
<path d="M14.2005 1.49045V0.813729C14.2005 0.660131 14.0755 0.535183 13.9219 0.535183H13.7991C13.6455 0.535183 13.5205 0.660131 13.5205 0.813729V2.54487C13.5205 2.69847 13.6455 2.82341 13.7991 2.82341C13.9469 2.82341 14.0667 2.94322 14.0667 3.09101C14.0667 3.23879 13.9469 3.3586 13.7991 3.3586C13.3504 3.3586 12.9854 2.99357 12.9854 2.54487V0.813729C12.9854 0.365031 13.3504 0 13.7991 0H13.9219C14.3706 0 14.7357 0.365031 14.7357 0.813729V1.49045H14.2005Z" fill="#554E56"/>
<path d="M4.18277 8.70289H2.90854C2.76779 8.70289 2.65369 8.58879 2.65369 8.44803V7.1738C2.65369 7.03305 2.76779 6.91895 2.90854 6.91895H4.18277C4.32353 6.91895 4.43763 7.03305 4.43763 7.1738V8.44803C4.43763 8.58879 4.32353 8.70289 4.18277 8.70289Z" fill="#D0E8FF"/>
<path d="M7.81901 8.70289H6.54477C6.40402 8.70289 6.28992 8.58879 6.28992 8.44803V7.1738C6.28992 7.03305 6.40402 6.91895 6.54477 6.91895H7.81901C7.95976 6.91895 8.07386 7.03305 8.07386 7.1738V8.44803C8.07386 8.58879 7.95976 8.70289 7.81901 8.70289Z" fill="#D0E8FF"/>
<path d="M11.4553 8.70289H10.1811C10.0403 8.70289 9.92621 8.58879 9.92621 8.44803V7.1738C9.92621 7.03305 10.0403 6.91895 10.1811 6.91895H11.4553C11.596 6.91895 11.7102 7.03305 11.7102 7.1738V8.44803C11.7102 8.58879 11.596 8.70289 11.4553 8.70289Z" fill="#D0E8FF"/>
<path d="M15.0915 8.70289H13.8173C13.6765 8.70289 13.5624 8.58879 13.5624 8.44803V7.1738C13.5624 7.03305 13.6765 6.91895 13.8173 6.91895H15.0915C15.2322 6.91895 15.3464 7.03305 15.3464 7.1738V8.44803C15.3464 8.58879 15.2322 8.70289 15.0915 8.70289Z" fill="#D0E8FF"/>
<path d="M4.18277 12.0125H2.90854C2.76779 12.0125 2.65369 11.8984 2.65369 11.7576V10.4834C2.65369 10.3426 2.76779 10.2285 2.90854 10.2285H4.18277C4.32353 10.2285 4.43763 10.3426 4.43763 10.4834V11.7576C4.43763 11.8984 4.32353 12.0125 4.18277 12.0125Z" fill="#D0E8FF"/>
<path d="M7.81901 12.0125H6.54477C6.40402 12.0125 6.28992 11.8984 6.28992 11.7576V10.4834C6.28992 10.3426 6.40402 10.2285 6.54477 10.2285H7.81901C7.95976 10.2285 8.07386 10.3426 8.07386 10.4834V11.7576C8.07386 11.8984 7.95976 12.0125 7.81901 12.0125Z" fill="#D0E8FF"/>
<path d="M11.4553 12.0125H10.1811C10.0403 12.0125 9.92621 11.8984 9.92621 11.7576V10.4834C9.92621 10.3426 10.0403 10.2285 10.1811 10.2285H11.4553C11.596 10.2285 11.7102 10.3426 11.7102 10.4834V11.7576C11.7102 11.8984 11.596 12.0125 11.4553 12.0125Z" fill="#D0E8FF"/>
<path d="M15.0915 12.0925H13.8173C13.6765 12.0925 13.5624 11.9784 13.5624 11.8377V10.5634C13.5624 10.4227 13.6765 10.3086 13.8173 10.3086H15.0915C15.2322 10.3086 15.3464 10.4227 15.3464 10.5634V11.8377C15.3464 11.9784 15.2322 12.0925 15.0915 12.0925Z" fill="#D0E8FF"/>
<path d="M4.18277 15.323H2.90854C2.76779 15.323 2.65369 15.2089 2.65369 15.0682V13.7939C2.65369 13.6532 2.76779 13.5391 2.90854 13.5391H4.18277C4.32353 13.5391 4.43763 13.6532 4.43763 13.7939V15.0682C4.43763 15.2089 4.32353 15.323 4.18277 15.323Z" fill="#D0E8FF"/>
<path d="M7.81901 15.323H6.54477C6.40402 15.323 6.28992 15.2089 6.28992 15.0682V13.7939C6.28992 13.6532 6.40402 13.5391 6.54477 13.5391H7.81901C7.95976 13.5391 8.07386 13.6532 8.07386 13.7939V15.0682C8.07386 15.2089 7.95976 15.323 7.81901 15.323Z" fill="#D0E8FF"/>
<path d="M11.4553 15.323H10.1811C10.0403 15.323 9.92621 15.2089 9.92621 15.0682V13.7939C9.92621 13.6532 10.0403 13.5391 10.1811 13.5391H11.4553C11.596 13.5391 11.7102 13.6532 11.7102 13.7939V15.0682C11.7102 15.2089 11.596 15.323 11.4553 15.323Z" fill="#D0E8FF"/>
</g>
<defs>
<clipPath id="clip0">
<rect width="18" height="18" fill="white"/>
</clipPath>
</defs>
</svg>
