<svg width="56" height="56" viewBox="0 0 56 56" fill="none" xmlns="http://www.w3.org/2000/svg">
<circle cx="28" cy="28" r="28" fill="#EB5757"/>
<path d="M29.4391 21.127C29.4391 23.86 27.2237 26.0753 24.4908 26.0753C21.7579 26.0753 19.5425 23.86 19.5425 21.127C19.5425 18.3941 21.7579 16.1787 24.4908 16.1787C27.2237 16.1787 29.4391 18.3941 29.4391 21.127Z" fill="white"/>
<path d="M29.8911 31.2302C28.377 29.9741 26.4693 29.2907 24.5019 29.2999H24.4854C22.1924 29.3056 20.0557 30.1982 18.4769 31.816C16.9595 33.3781 16.0837 35.4812 16 37.7853L29.7405 37.7574C28.4829 35.7466 28.542 33.1806 29.8911 31.2302Z" fill="white"/>
<path d="M34.8115 29.4172C31.9461 29.4172 29.6233 31.74 29.6233 34.6054C29.6233 37.4709 31.9461 39.7937 34.8115 39.7937C37.677 39.7937 39.9998 37.4709 39.9998 34.6054C40.0113 33.2258 39.4685 31.8995 38.4929 30.9241C37.5174 29.9485 36.1912 29.4056 34.8115 29.4172ZM37.0709 34.9959H32.5521C32.3366 34.9959 32.1616 34.8212 32.1616 34.6054C32.1616 34.3897 32.3366 34.2149 32.5521 34.2149H37.0709C37.2867 34.2149 37.4614 34.3897 37.4614 34.6054C37.4614 34.8212 37.2867 34.9959 37.0709 34.9959Z" fill="white"/>
</svg>
