<svg width="24" height="24" viewBox="0 0 24 24" fill="none" xmlns="http://www.w3.org/2000/svg">
<path d="M19.875 3H15.75V2.25C15.75 1.00734 14.7427 0 13.5 0H10.5C9.25734 0 8.25 1.00734 8.25 2.25V3H4.125C3.08948 3 2.25 3.83948 2.25 4.875V6.375C2.25 6.78923 2.58577 7.125 3 7.125H21C21.4142 7.125 21.75 6.78923 21.75 6.375V4.875C21.75 3.83948 20.9105 3 19.875 3ZM9.75 2.25C9.75 1.83656 10.0866 1.5 10.5 1.5H13.5C13.9134 1.5 14.25 1.83656 14.25 2.25V3H9.75V2.25Z" fill="#576169"/>
<path d="M3.67333 8.625C3.5395 8.625 3.43286 8.73684 3.43924 8.87053L4.05799 21.8569C4.11517 23.0588 5.10236 24 6.30517 24H17.6949C18.8977 24 19.8849 23.0588 19.9421 21.8569L20.5608 8.87053C20.5672 8.73684 20.4605 8.625 20.3267 8.625H3.67333ZM15 10.5C15 10.0856 15.3356 9.75 15.75 9.75C16.1644 9.75 16.5 10.0856 16.5 10.5V20.25C16.5 20.6644 16.1644 21 15.75 21C15.3356 21 15 20.6644 15 20.25V10.5ZM11.25 10.5C11.25 10.0856 11.5856 9.75 12 9.75C12.4144 9.75 12.75 10.0856 12.75 10.5V20.25C12.75 20.6644 12.4144 21 12 21C11.5856 21 11.25 20.6644 11.25 20.25V10.5ZM7.50002 10.5C7.50002 10.0856 7.83564 9.75 8.25002 9.75C8.6644 9.75 9.00002 10.0856 9.00002 10.5V20.25C9.00002 20.6644 8.6644 21 8.25002 21C7.83564 21 7.50002 20.6644 7.50002 20.25V10.5Z" fill="#576169"/>
</svg>
