<svg width="24" height="24" viewBox="0 0 24 24" fill="none" xmlns="http://www.w3.org/2000/svg">
<path d="M14.3511 5.36084L3.34691 16.3658C3.29155 16.4214 3.25157 16.4915 3.23254 16.5668L2.01283 21.4625C1.97634 21.6099 2.01965 21.7666 2.1272 21.8741C2.20858 21.9555 2.31946 22.0006 2.43288 22.0006C2.46762 22.0006 2.50315 21.9963 2.53774 21.9876L7.4334 20.7677C7.5097 20.7487 7.57902 20.7088 7.63438 20.6535L18.6396 9.64926L14.3511 5.36084Z" fill="#576169"/>
<path d="M21.3659 3.86064L20.1409 2.6357C19.3223 1.817 17.8954 1.8178 17.0776 2.6357L15.5771 4.13618L19.8654 8.42445L21.3659 6.92396C21.7748 6.51517 22.0001 5.97107 22.0001 5.39238C22.0001 4.8137 21.7748 4.26959 21.3659 3.86064Z" fill="#576169"/>
</svg>
