<svg width="24" height="24" viewBox="0 0 24 24" fill="none" xmlns="http://www.w3.org/2000/svg">
<path d="M14.8213 4.03101L1.61616 17.2371C1.54972 17.3037 1.50175 17.3879 1.47891 17.4783L0.0152456 23.3531C-0.0285368 23.53 0.023431 23.718 0.152494 23.8471C0.250147 23.9447 0.383208 23.9988 0.519314 23.9988C0.561002 23.9988 0.603643 23.9937 0.645141 23.9832L6.51997 22.5193C6.61154 22.4965 6.69472 22.4487 6.76116 22.3823L19.9674 9.17715L14.8213 4.03101Z" fill="#DFC58E"/>
<path d="M23.239 2.23059L21.769 0.760642C20.7866 -0.221796 19.0743 -0.220845 18.093 0.760642L16.2924 2.56124L21.4384 7.70719L23.239 5.90659C23.7297 5.41604 24 4.76311 24 4.06868C24 3.37426 23.7297 2.72133 23.239 2.23059Z" fill="#DFC58E"/>
</svg>
