<svg width="94" height="120" viewBox="0 0 94 120" fill="none" xmlns="http://www.w3.org/2000/svg">
<path d="M93.7264 46.5434C93.7264 72.2486 72.8882 93.0868 47.183 93.0868C21.4778 93.0868 0.639587 72.2486 0.639587 46.5434C0.639587 20.8382 21.4778 0 47.183 0C72.8882 0 93.7264 20.8382 93.7264 46.5434Z" fill="#F1F1F1"/>
<path d="M28.075 50.1177C28.2004 47.2444 30.6315 45.0167 33.5048 45.1422L69.9237 46.7323C72.7971 46.8577 75.0247 49.2888 74.8992 52.1621L72.5141 106.79C72.3887 109.664 69.9576 111.891 67.0843 111.766L30.6654 110.176C27.792 110.05 25.5644 107.619 25.6898 104.746L28.075 50.1177Z" fill="#EEEEEE"/>
<path fill-rule="evenodd" clip-rule="evenodd" d="M69.8669 48.033L33.448 46.4429C31.293 46.3488 29.4697 48.0195 29.3756 50.1745L26.9905 104.803C26.8964 106.958 28.5671 108.781 30.7222 108.875L67.1411 110.465C69.2961 110.559 71.1194 108.889 71.2134 106.734L73.5986 52.1053C73.6927 49.9503 72.0219 48.127 69.8669 48.033ZM33.5048 45.1422C30.6315 45.0167 28.2004 47.2444 28.075 50.1177L25.6898 104.746C25.5644 107.619 27.792 110.05 30.6654 110.176L67.0843 111.766C69.9576 111.891 72.3887 109.664 72.5141 106.79L74.8992 52.1621C75.0247 49.2888 72.7971 46.8577 69.9237 46.7323L33.5048 45.1422Z" fill="#999999"/>
<path d="M3.24486 47.502C2.86945 44.6505 4.87672 42.0345 7.72823 41.6591L43.8699 36.901C46.7214 36.5256 49.3374 38.5328 49.7128 41.3844L56.85 95.5969C57.2254 98.4484 55.2181 101.064 52.3666 101.44L16.2249 106.198C13.3734 106.573 10.7575 104.566 10.3821 101.715L3.24486 47.502Z" fill="#FAFAFA"/>
<path fill-rule="evenodd" clip-rule="evenodd" d="M7.55825 40.3671L43.7 35.609C47.2643 35.1397 50.5342 37.6488 51.0035 41.2132L58.1407 95.4258C58.61 98.9901 56.1009 102.26 52.5365 102.729L16.3948 107.487C12.8304 107.957 9.56052 105.448 9.09126 101.883L1.95404 47.6707C1.48478 44.1063 3.99387 40.8364 7.55825 40.3671ZM7.72818 41.6579C4.87668 42.0333 2.86941 44.6492 3.24481 47.5007L10.382 101.713C10.7574 104.565 13.3734 106.572 16.2249 106.197L52.3666 101.439C55.2181 101.063 57.2254 98.4472 56.8499 95.5957L49.7127 41.3831C49.3373 38.5316 46.7214 36.5243 43.8699 36.8998L7.72818 41.6579Z" fill="#999999"/>
<path d="M3.24486 47.502C2.86945 44.6505 4.87672 42.0345 7.72823 41.6591L43.8699 36.901C46.7214 36.5256 49.3374 38.5328 49.7128 41.3844L50.9873 51.0652L4.51936 57.1828L3.24486 47.502Z" fill="#EEEEEE"/>
<path d="M58.1706 38.3003C58.7052 38.2299 59.1957 38.6063 59.2661 39.1409C59.3365 39.6756 58.9601 40.1661 58.4255 40.2365L53.9078 40.8312C53.3731 40.9016 52.8826 40.5253 52.8122 39.9906C52.7419 39.4559 53.1182 38.9655 53.6529 38.8951L58.1706 38.3003Z" fill="#999999"/>
<path d="M41.4321 28.3587C41.3617 27.824 41.7381 27.3336 42.2727 27.2632C42.8074 27.1928 43.2979 27.5691 43.3682 28.1038L43.963 32.6215C44.0334 33.1562 43.657 33.6467 43.1224 33.7171C42.5877 33.7874 42.0972 33.4111 42.0268 32.8764L41.4321 28.3587Z" fill="#999999"/>
<path d="M52.1525 29.9397C52.4808 29.5119 53.0937 29.4312 53.5215 29.7595C53.9494 30.0877 54.0301 30.7007 53.7018 31.1285L50.9278 34.7436C50.5996 35.1714 49.9866 35.2521 49.5588 34.9238C49.1309 34.5956 49.0502 33.9826 49.3785 33.5548L52.1525 29.9397Z" fill="#999999"/>
<path d="M9.54683 60.4597C9.45297 59.7468 9.95479 59.0929 10.6677 58.999L45.5186 54.4108C46.2315 54.3169 46.8855 54.8188 46.9793 55.5316C47.0732 56.2445 46.5713 56.8985 45.8585 56.9923L11.0075 61.5806C10.2947 61.6744 9.64068 61.1726 9.54683 60.4597Z" fill="#DCDCDC"/>
<path d="M11.2461 73.3669C11.1523 72.6541 11.6541 72.0001 12.3669 71.9062L47.2179 67.318C47.9308 67.2242 48.5847 67.726 48.6786 68.4389C48.7724 69.1517 48.2706 69.8057 47.5577 69.8996L12.7068 74.4878C11.9939 74.5816 11.34 74.0798 11.2461 73.3669Z" fill="#DCDCDC"/>
<path d="M12.9456 86.2752C12.8517 85.5623 13.3535 84.9083 14.0664 84.8144L48.9173 80.2262C49.6302 80.1324 50.2842 80.6342 50.3781 81.3471C50.4719 82.0599 49.9701 82.7139 49.2572 82.8078L14.4063 87.396C13.6934 87.4898 13.0394 86.988 12.9456 86.2752Z" fill="#DCDCDC"/>
<path d="M10.2266 65.6228C10.1327 64.9099 10.6345 64.2559 11.3474 64.1621L22.319 62.7177C23.0319 62.6238 23.6859 63.1256 23.7797 63.8385C23.8736 64.5514 23.3717 65.2054 22.6589 65.2992L11.6873 66.7436C10.9744 66.8375 10.3204 66.3357 10.2266 65.6228Z" fill="#EEEEEE"/>
<path d="M11.9259 78.531C11.832 77.8181 12.3338 77.1642 13.0467 77.0703L24.0183 75.6259C24.7312 75.532 25.3851 76.0338 25.479 76.7467C25.5728 77.4596 25.071 78.1136 24.3582 78.2074L13.3866 79.6519C12.6737 79.7457 12.0197 79.2439 11.9259 78.531Z" fill="#EEEEEE"/>
<path d="M13.6252 91.4382C13.5313 90.7254 14.0332 90.0714 14.746 89.9775L25.7176 88.5331C26.4305 88.4392 27.0845 88.9411 27.1783 89.6539C27.2722 90.3668 26.7704 91.0208 26.0575 91.1146L15.0859 92.5591C14.373 92.6529 13.719 92.1511 13.6252 91.4382Z" fill="#EEEEEE"/>
</svg>
