<svg width="24" height="22" viewBox="0 0 24 22" fill="none" xmlns="http://www.w3.org/2000/svg">
    <path d="M23.713 18.376L13.8237 1.50163C13.4475 0.854797 12.7485 0.453125 12 0.453125C11.2515 0.453125 10.5525 0.854797 10.1776 1.50097L0.287016 18.376C0.0988594 18.698 0 19.0647 0 19.4375C0 20.6007 0.946219 21.5469 2.10938 21.5469H21.8906C23.0538 21.5469 24 20.6007 24 19.4375C24 19.0647 23.9011 18.698 23.713 18.376ZM12 17.3281C11.6117 17.3281 11.2969 17.0133 11.2969 16.625C11.2969 16.2366 11.6117 15.9219 12 15.9219C12.3883 15.9219 12.7031 16.2366 12.7031 16.625C12.7031 17.0133 12.3883 17.3281 12 17.3281ZM12.7031 13.8125C12.7031 14.2011 12.3886 14.5156 12 14.5156C11.6114 14.5156 11.2969 14.2011 11.2969 13.8125L11 6.78125C11 6.39261 11.4766 6.07812 12 6.07812C12.543 6.07812 13 6.39261 13 6.78125L12.7031 13.8125Z" fill="#EB5757"/>
</svg>
