<svg width="30" height="30" viewBox="0 0 30 30" fill="none" xmlns="http://www.w3.org/2000/svg">
    <circle opacity="0.5" cx="15" cy="15" r="15" fill="black"/>
    <path d="M20.2273 13.2422H15.3779L19.5641 5.87661C19.6677 5.69519 19.6671 5.47256 19.5624 5.29175C19.4572 5.11108 19.2643 5 19.0554 5H12.0242C11.7719 5 11.5481 5.16144 11.4686 5.40054L7.95298 15.9865C7.89286 16.165 7.92323 16.3618 8.03309 16.5146C8.14356 16.6674 8.32041 16.7578 8.50855 16.7578H13.4794L10.314 24.1834C10.2006 24.4473 10.2957 24.7546 10.5383 24.9084C10.7769 25.061 11.0975 25.0208 11.2901 24.8033L20.665 14.2174C20.8184 14.0451 20.8562 13.7983 20.7618 13.5884C20.6673 13.3778 20.458 13.2422 20.2273 13.2422Z" fill="white"/>
</svg>
