<svg width="30" height="30" viewBox="0 0 30 30" fill="none" xmlns="http://www.w3.org/2000/svg">
    <circle opacity="0.5" cx="15" cy="15" r="15" fill="black"/>
    <path fill-rule="evenodd" clip-rule="evenodd" d="M17.0314 18.3204L22.2333 24.0685C22.4185 24.2732 22.7347 24.289 22.9395 24.1037C23.1442 23.9184 23.16 23.6022 22.9747 23.3975L6.87073 5.6025C6.68544 5.39775 6.36925 5.38198 6.1645 5.56727C5.95976 5.75256 5.94398 6.06875 6.12927 6.2735L9.82318 10.3553L7.95306 15.9865C7.89294 16.165 7.9233 16.3618 8.03316 16.5146C8.14364 16.6674 8.32049 16.7578 8.50863 16.7578H13.4795L10.314 24.1834C10.2007 24.4473 10.2957 24.7546 10.5383 24.9084C10.777 25.061 11.0976 25.0208 11.2901 24.8033L17.0314 18.3204ZM20.6651 14.2174L18.3654 16.8141L10.5472 8.17504L11.4687 5.40054C11.5482 5.16144 11.772 5 12.0242 5H19.0555C19.2644 5 19.4572 5.11108 19.5625 5.29175C19.6672 5.47256 19.6678 5.69519 19.5642 5.87661L15.378 13.2422H20.2273C20.4581 13.2422 20.6674 13.3778 20.7619 13.5884C20.8563 13.7983 20.8185 14.0451 20.6651 14.2174Z" fill="white"/>
</svg>
