<svg width="18" height="19" viewBox="0 0 18 19" fill="none" xmlns="http://www.w3.org/2000/svg">
    <g clip-path="url(#clip0)">
        <path d="M8.99962 0.5C4.02971 0.5 0 4.52971 0 9.49962C0 14.4695 4.02971 18.5 8.99962 18.5C13.9695 18.5 18 14.4695 18 9.49962C18 4.52971 13.9695 0.5 8.99962 0.5ZM10.8731 14.4482C10.4099 14.631 10.0411 14.7697 9.76457 14.8657C9.48876 14.9617 9.168 15.0097 8.80305 15.0097C8.24229 15.0097 7.80571 14.8726 7.49486 14.599C7.184 14.3255 7.02933 13.9789 7.02933 13.5575C7.02933 13.3937 7.04076 13.2261 7.06362 13.0554C7.08724 12.8848 7.12457 12.6928 7.17562 12.4771L7.75543 10.4291C7.80648 10.2326 7.85067 10.0459 7.88571 9.87219C7.92076 9.69695 7.93752 9.53619 7.93752 9.3899C7.93752 9.12933 7.88343 8.94648 7.776 8.84362C7.66705 8.74076 7.4621 8.69048 7.15657 8.69048C7.00724 8.69048 6.85333 8.71257 6.69562 8.75905C6.53943 8.80705 6.40381 8.85048 6.29257 8.89314L6.44571 8.26229C6.82514 8.10762 7.18857 7.97505 7.53524 7.86533C7.88191 7.7541 8.20952 7.69924 8.5181 7.69924C9.07505 7.69924 9.50476 7.83486 9.80724 8.10305C10.1082 8.372 10.2598 8.72171 10.2598 9.15143C10.2598 9.24057 10.2491 9.39752 10.2286 9.62152C10.208 9.84629 10.1691 10.0512 10.1128 10.2394L9.536 12.2813C9.48876 12.4451 9.44686 12.6326 9.40876 12.8421C9.37143 13.0516 9.35314 13.2116 9.35314 13.319C9.35314 13.5903 9.41333 13.7754 9.53524 13.8737C9.65562 13.972 9.86667 14.0215 10.1653 14.0215C10.3063 14.0215 10.464 13.9964 10.6423 13.9476C10.819 13.8989 10.947 13.8554 11.0278 13.8181L10.8731 14.4482ZM10.771 6.16019C10.5021 6.4101 10.1783 6.53505 9.79962 6.53505C9.42171 6.53505 9.09562 6.4101 8.82438 6.16019C8.55467 5.91029 8.41829 5.60629 8.41829 5.25124C8.41829 4.89695 8.55543 4.59219 8.82438 4.34C9.09562 4.08705 9.42171 3.96133 9.79962 3.96133C10.1783 3.96133 10.5029 4.08705 10.771 4.34C11.04 4.59219 11.1749 4.89695 11.1749 5.25124C11.1749 5.60705 11.04 5.91029 10.771 6.16019Z" fill="#838AA2"/>
    </g>
    <defs>
        <clipPath id="clip0">
            <rect width="18" height="18" fill="white" transform="translate(0 0.5)"/>
        </clipPath>
    </defs>
</svg>
