<svg width="68" height="27" viewBox="0 0 68 27" fill="none" xmlns="http://www.w3.org/2000/svg">
<path d="M0.0250388 23.5116C0.0250388 23.5116 -0.58462 26.7383 4.21269 26.7383L6 26.7383V12.7391C6 12.7391 0.0250388 12.4328 0.0250388 23.5116Z" fill="#571DA0"/>
<g filter="url(#filter0_d)">
<path d="M0.00492955 4.49921V23.8711C0.0742697 21.03 1.24315 19.9987 4.45261 19.9886L58.6973 19.9886C59.0897 19.9858 59.4766 19.8936 59.8297 19.7187C60.1827 19.5438 60.493 19.2906 60.7379 18.9776L66.6813 11.3845C67.0568 10.9045 67.2571 10.3062 67.2481 9.69204C67.2391 9.07787 67.0212 8.486 66.6318 8.01769L60.7775 0.940285C60.5346 0.645448 60.2313 0.408486 59.889 0.246044C59.5468 0.0836019 59.1738 -0.000378894 58.7964 1.28505e-06L4.45261 0C1.02522 0.0202212 -0.0743163 1.19305 0.00492955 4.49921Z" fill="#6C39DB"/>
</g>
<path d="M10.4846 12.2093C9.75664 13.1843 8.30064 14.3153 7.02664 14.9783C7.26064 15.1603 7.61164 15.4723 7.79364 15.6673C9.09364 14.9133 10.5626 13.7173 11.4856 12.5993L10.4846 12.2093ZM13.8126 12.6903C15.0346 13.6003 16.5946 14.8873 17.3616 15.6543L18.2716 15.0563C17.4526 14.2893 15.8406 13.0413 14.6446 12.1963L13.8126 12.6903ZM10.8356 7.45132H14.5276V10.5193H10.8356V7.45132ZM15.5156 10.5193V7.45132H18.0896V6.51532H15.5156V3.88932H14.5276V6.51532H10.8356V3.88932H9.86064V6.51532H7.39064V7.45132H9.86064V10.5193H6.87064V11.4553H18.5576V10.5193H15.5156ZM28.8926 10.0513H23.4716V8.73832H28.8926V10.0513ZM23.4716 12.2483V10.8833H28.8926V12.2483H23.4716ZM31.3626 6.35932V5.44932H24.7456C24.9406 4.98132 25.0966 4.48732 25.2526 4.00632L24.2906 3.77232C24.1346 4.33132 23.9396 4.89032 23.7186 5.44932H20.0526V6.35932H23.3156C22.4836 8.07532 21.3006 9.63532 19.7406 10.6883C19.9356 10.8703 20.2346 11.2213 20.3646 11.4293C21.1836 10.8573 21.8986 10.1553 22.5226 9.38832V15.6413H23.4716V13.0803H28.8926V14.4323C28.8926 14.6273 28.8146 14.6923 28.5936 14.7053C28.3596 14.7053 27.5796 14.7183 26.7216 14.6793C26.8516 14.9523 26.9946 15.3423 27.0336 15.6283C28.1386 15.6283 28.8666 15.6153 29.2956 15.4593C29.7116 15.3033 29.8416 15.0173 29.8416 14.4323V7.86732H23.5756C23.8616 7.38632 24.1216 6.86632 24.3686 6.35932H31.3626ZM39.1496 10.4803V7.03532H42.8806V10.4803H39.1496ZM34.4306 10.4803V7.03532H38.1486V10.4803H34.4306ZM39.1496 6.08632V3.77232H38.1486V6.08632H33.4816V12.2353H34.4306V11.4293H38.1486V15.6413H39.1496V11.4293H42.8806V12.1703H43.8686V6.08632H39.1496ZM52.6696 14.0553V9.07632H56.8816V8.12732H52.6696V3.82432H51.6686V14.0553H48.6526V6.63232H47.6646V14.0553H45.8706V15.0043H57.4666V14.0553H52.6696Z" fill="white"/>
<defs>
<filter id="filter0_d" x="0.000976562" y="0" width="67.2474" height="24.8711" filterUnits="userSpaceOnUse" color-interpolation-filters="sRGB">
<feFlood flood-opacity="0" result="BackgroundImageFix"/>
<feColorMatrix in="SourceAlpha" type="matrix" values="0 0 0 0 0 0 0 0 0 0 0 0 0 0 0 0 0 0 127 0" result="hardAlpha"/>
<feOffset dy="1"/>
<feColorMatrix type="matrix" values="0 0 0 0 0 0 0 0 0 0 0 0 0 0 0 0 0 0 0.25 0"/>
<feBlend mode="normal" in2="BackgroundImageFix" result="effect1_dropShadow"/>
<feBlend mode="normal" in="SourceGraphic" in2="effect1_dropShadow" result="shape"/>
</filter>
</defs>
</svg>
