<svg width="68" height="27" viewBox="0 0 68 27" fill="none" xmlns="http://www.w3.org/2000/svg">
<path d="M0.0250388 23.5116C0.0250388 23.5116 -0.58462 26.7383 4.21269 26.7383L6 26.7383V12.7391C6 12.7391 0.0250388 12.4328 0.0250388 23.5116Z" fill="#571DA0"/>
<g filter="url(#filter0_d)">
<path d="M0.00492955 4.49921V23.8711C0.0742697 21.03 1.24315 19.9987 4.45261 19.9886L58.6973 19.9886C59.0897 19.9858 59.4766 19.8936 59.8297 19.7187C60.1827 19.5438 60.493 19.2906 60.7379 18.9776L66.6813 11.3845C67.0568 10.9045 67.2571 10.3062 67.2481 9.69204C67.2391 9.07787 67.0212 8.486 66.6318 8.01769L60.7775 0.940285C60.5346 0.645448 60.2313 0.408486 59.889 0.246044C59.5468 0.0836019 59.1738 -0.000378894 58.7964 1.28505e-06L4.45261 0C1.02522 0.0202212 -0.0743163 1.19305 0.00492955 4.49921Z" fill="#6C39DB"/>
</g>
<path d="M8.87264 10.3373H11.2256V11.6373H8.87264V10.3373ZM11.2256 6.35932V7.50332H8.87264V6.35932H11.2256ZM8.87264 8.28332H11.2256V9.55732H8.87264V8.28332ZM13.0716 11.6373H12.1226V6.35932H13.0716V5.48832H12.1226V3.92832H11.2256V5.48832H8.87264V3.92832H7.98864V5.48832H6.89664V6.35932H7.98864V11.6373H6.72764V12.5083H13.0716V11.6373ZM8.52164 12.7813C8.13164 13.6393 7.45564 14.5103 6.74064 15.0953C6.97464 15.2253 7.33864 15.4983 7.52064 15.6543C8.23564 15.0173 8.97664 14.0293 9.44464 13.0283L8.52164 12.7813ZM10.3676 13.1843C10.8876 13.7953 11.4726 14.6403 11.7066 15.1603L12.4866 14.7053C12.2396 14.1723 11.6416 13.3663 11.1216 12.7813L10.3676 13.1843ZM14.5926 10.4023C14.6056 9.96032 14.6186 9.51832 14.6186 9.11532V8.24432H17.2706V10.4023H14.5926ZM17.2706 5.30632V7.37332H14.6186V5.30632H17.2706ZM18.2066 4.42232H13.7086V9.11532C13.7086 10.9743 13.6046 13.4443 12.5256 15.1603C12.7466 15.2383 13.1366 15.5373 13.2926 15.7193C14.0726 14.4713 14.3976 12.8203 14.5276 11.2733H17.2706V14.3933C17.2706 14.6013 17.1926 14.6663 16.9976 14.6663C16.8156 14.6793 16.1656 14.6793 15.4766 14.6663C15.5936 14.9133 15.7366 15.3293 15.7756 15.6023C16.7376 15.6023 17.3356 15.5763 17.7126 15.4203C18.0636 15.2643 18.2066 14.9783 18.2066 14.4063V4.42232ZM23.6276 4.29232L23.4716 4.33132H20.2866V15.6413H21.1966V5.21532H23.1076C22.7956 6.09932 22.3666 7.29532 21.9506 8.23132C22.9646 9.23232 23.2506 10.0903 23.2506 10.8053C23.2506 11.1953 23.1726 11.5463 22.9516 11.6893C22.8216 11.7543 22.6786 11.7933 22.4966 11.8063C22.2626 11.8193 21.9896 11.8193 21.6516 11.7803C21.8076 12.0403 21.8856 12.4173 21.8986 12.6643C22.2106 12.6773 22.5876 12.6903 22.8606 12.6513C23.1466 12.6123 23.3936 12.5343 23.5886 12.4043C23.9786 12.1443 24.1346 11.6243 24.1216 10.9093C24.1216 10.1033 23.8876 9.18032 22.8346 8.11432C23.3286 7.10032 23.8616 5.77432 24.2646 4.68232L23.6276 4.29232ZM25.9026 7.60732H29.8286V9.21932H25.9026V7.60732ZM29.8286 5.20232V6.78832H25.9026V5.20232H29.8286ZM30.5826 10.3893C30.1536 10.8703 29.4646 11.4683 28.8536 11.9493C28.5546 11.3773 28.3206 10.7403 28.1386 10.0773H30.7906V4.34432H24.9666V14.2503C24.4206 14.3543 23.9266 14.4453 23.5106 14.5233L23.8226 15.4593C25.0836 15.1733 26.8126 14.7963 28.4376 14.4193L28.3726 13.5873C27.5406 13.7563 26.6956 13.9253 25.9026 14.0813V10.0773H27.3066C27.9306 12.6123 29.1136 14.6273 31.0246 15.6023C31.1546 15.3553 31.4406 14.9913 31.6616 14.8093C30.6606 14.3543 29.8546 13.6003 29.2436 12.6253C29.9196 12.1573 30.7126 11.5203 31.3366 10.9223L30.5826 10.3893ZM35.5226 12.2743C35.1716 12.2743 35.1196 12.1963 35.1196 11.7283V8.30932L38.2266 7.64632L38.0446 6.77532L35.1196 7.39932V4.13632H34.1706V7.59432L32.6106 7.93232L32.7796 8.81632L34.1706 8.51732V11.7153C34.1706 12.8723 34.4306 13.1843 35.3926 13.1843H36.7576C37.6416 13.1843 37.8756 12.6253 37.9796 10.8313C37.7196 10.7663 37.3296 10.5973 37.1086 10.4153C37.0826 11.9363 37.0176 12.2743 36.6796 12.2743H35.5226ZM37.4076 4.91632V5.83932H39.6696C39.6176 9.59632 39.4096 13.1453 36.2116 14.9263C36.4456 15.1083 36.7706 15.4463 36.9136 15.6933C40.2546 13.7043 40.5536 9.88232 40.6446 5.83932H43.3746C43.2186 11.7153 43.0366 13.8733 42.6466 14.3543C42.5036 14.5363 42.3606 14.5883 42.1396 14.5753C41.8406 14.5753 41.1516 14.5753 40.3976 14.5103C40.5666 14.7963 40.6966 15.2123 40.7096 15.4983C41.3856 15.5373 42.1136 15.5503 42.5296 15.4983C42.9716 15.4463 43.2576 15.3293 43.5306 14.9263C44.0506 14.2633 44.1806 12.0793 44.3496 5.44932C44.3496 5.31932 44.3626 4.91632 44.3626 4.91632H37.4076ZM48.9906 5.29332C48.9906 5.43632 48.9646 5.91732 48.9256 6.52832C48.2496 6.64532 47.4826 6.72332 47.0536 6.74932C46.7416 6.76232 46.4946 6.77532 46.2086 6.76232L46.3126 7.82832C47.1316 7.71132 48.2756 7.55532 48.8606 7.47732C48.8346 7.89332 48.7956 8.33532 48.7696 8.76432C48.1196 9.77832 46.6116 11.8063 45.8836 12.7163L46.5466 13.6133C47.1706 12.7293 48.0286 11.4943 48.6656 10.5323C48.6656 10.7403 48.6526 10.9223 48.6526 11.0523C48.6266 12.4693 48.6266 13.1323 48.6136 14.3803C48.6136 14.5883 48.6006 14.9133 48.5746 15.1473H49.7056C49.6796 14.9133 49.6536 14.5883 49.6406 14.3543C49.5756 13.1973 49.5886 12.4043 49.5886 11.2213C49.5886 10.7533 49.6016 10.2333 49.6276 9.68732C50.8236 8.41332 52.3966 7.19132 53.4496 7.19132C54.1126 7.19132 54.5026 7.50332 54.5026 8.25732C54.5026 9.53132 54.0086 11.6633 54.0086 13.1063C54.0086 14.1853 54.5936 14.7443 55.4516 14.7443C56.3356 14.7443 57.1546 14.3543 57.8436 13.6653L57.6746 12.5473C57.0116 13.2493 56.3356 13.6263 55.7116 13.6263C55.2436 13.6263 55.0356 13.2623 55.0356 12.8333C55.0356 11.5073 55.5166 9.27132 55.5166 7.97132C55.5166 6.91832 54.9186 6.22932 53.7096 6.22932C52.3966 6.22932 50.7196 7.49032 49.7056 8.42632C49.7316 8.16632 49.7446 7.91932 49.7706 7.67232C49.9656 7.34732 50.1866 6.99632 50.3556 6.76232L49.9786 6.30732C49.9526 6.32032 49.9266 6.32032 49.9006 6.33332C49.9916 5.42332 50.0956 4.69532 50.1606 4.37032L48.9386 4.33132C48.9906 4.65632 48.9906 5.00732 48.9906 5.29332Z" fill="white"/>
<defs>
<filter id="filter0_d" x="0.000976562" y="0" width="67.2474" height="24.8711" filterUnits="userSpaceOnUse" color-interpolation-filters="sRGB">
<feFlood flood-opacity="0" result="BackgroundImageFix"/>
<feColorMatrix in="SourceAlpha" type="matrix" values="0 0 0 0 0 0 0 0 0 0 0 0 0 0 0 0 0 0 127 0" result="hardAlpha"/>
<feOffset dy="1"/>
<feColorMatrix type="matrix" values="0 0 0 0 0 0 0 0 0 0 0 0 0 0 0 0 0 0 0.25 0"/>
<feBlend mode="normal" in2="BackgroundImageFix" result="effect1_dropShadow"/>
<feBlend mode="normal" in="SourceGraphic" in2="effect1_dropShadow" result="shape"/>
</filter>
</defs>
</svg>
