<svg width="68" height="27" viewBox="0 0 68 27" fill="none" xmlns="http://www.w3.org/2000/svg">
    <path d="M0.0250388 23.5116C0.0250388 23.5116 -0.58462 26.7383 4.21269 26.7383L6 26.7383V12.7391C6 12.7391 0.0250388 12.4328 0.0250388 23.5116Z" fill="#2F3842"/>
    <g filter="url(#filter0_d)">
        <path d="M0.00492955 4.49921V23.8711C0.0742697 21.03 1.24315 19.9987 4.45261 19.9886L58.6973 19.9886C59.0897 19.9858 59.4766 19.8936 59.8297 19.7187C60.1827 19.5438 60.493 19.2906 60.7379 18.9776L66.6813 11.3845C67.0568 10.9045 67.2571 10.3062 67.2481 9.69204C67.2391 9.07787 67.0212 8.486 66.6318 8.01769L60.7775 0.940285C60.5346 0.645448 60.2313 0.408486 59.889 0.246044C59.5468 0.0836019 59.1738 -0.000378894 58.7964 1.28505e-06L4.45261 0C1.02522 0.0202212 -0.0743163 1.19305 0.00492955 4.49921Z" fill="#878C92"/>
    </g>
    <path d="M28.7236 8.32232H27.2026V6.12532H28.7236V8.32232ZM28.7236 11.4033H27.2026V9.18032H28.7236V11.4033ZM22.6006 9.18032H24.0436V11.4033H22.6006V9.18032ZM26.3706 9.18032V11.4033H24.8626V9.18032H26.3706ZM24.8626 8.32232V6.12532H26.3706V8.32232H24.8626ZM22.6006 6.12532H24.0436V8.32232H22.6006V6.12532ZM21.7296 8.32232H19.9226V9.18032H21.7296V11.4033H20.1306V12.2743H31.2716V11.4033H29.6336V9.18032H31.4536V8.32232H29.6336V6.12532H30.9726V5.26732H22.7696C23.0296 4.87732 23.2636 4.46132 23.4586 4.04532L22.5356 3.77232C21.9246 5.08532 20.8846 6.34632 19.7666 7.16532C20.0006 7.29532 20.3776 7.62032 20.5596 7.80232C20.9496 7.47732 21.3526 7.07432 21.7296 6.64532V8.32232ZM20.7416 15.6543C21.4436 15.0433 22.0286 14.0163 22.3406 13.0413L21.4436 12.8203C21.1186 13.7563 20.5076 14.7443 19.8316 15.2773L20.7416 15.6543ZM23.6926 13.1453C23.8486 13.9253 23.9526 14.9263 23.9656 15.5243L24.8886 15.3943C24.8756 14.8093 24.7326 13.8213 24.5766 13.0543L23.6926 13.1453ZM26.3186 13.1583C26.6436 13.9253 26.9816 14.9263 27.1116 15.5373L28.0476 15.3423C27.9176 14.7313 27.5666 13.7303 27.2156 12.9893L26.3186 13.1583ZM28.9576 13.0673C29.5946 13.8733 30.3356 14.9783 30.6476 15.6673L31.6096 15.3163C31.2586 14.6143 30.4916 13.5483 29.8416 12.7683L28.9576 13.0673ZM39.1366 5.55332H36.5106V3.81132H35.5876V5.55332H32.8446V6.42432H39.1366V5.55332ZM39.1886 9.24532C38.9286 8.56932 38.2396 7.55532 37.5896 6.81432L36.8356 7.20432C37.4726 7.95832 38.1356 9.01132 38.3826 9.70032L39.1886 9.24532ZM34.3656 6.87932C33.9756 7.86732 33.3126 8.86832 32.5976 9.53132C32.8056 9.66132 33.1826 9.94732 33.3386 10.1033C34.0796 9.36232 34.8206 8.23132 35.2756 7.12632L34.3656 6.87932ZM36.8616 9.07632C36.6796 9.75232 36.4456 10.3763 36.1726 10.9613C35.6136 10.4933 35.0416 10.0253 34.5216 9.63532L33.9496 10.2983C34.5216 10.7403 35.1456 11.2603 35.7306 11.7803C34.9506 13.0803 33.8976 14.1203 32.5976 14.8613C32.8056 15.0303 33.1436 15.4333 33.2606 15.6153C34.5346 14.8223 35.5876 13.7563 36.4196 12.4433C37.0046 13.0153 37.5116 13.5743 37.8496 14.0423L38.4606 13.2493C38.0966 12.7813 37.5376 12.1963 36.8876 11.6113C37.2516 10.8963 37.5636 10.1163 37.8106 9.27132L36.8616 9.07632ZM44.2716 6.76232H41.5026C41.5286 5.83932 41.5416 4.87732 41.5416 3.91532H40.6056C40.6056 4.87732 40.6056 5.83932 40.5796 6.76232H38.9676V7.67232H40.5406C40.3976 10.7533 39.8776 13.4313 37.9276 15.0173C38.1616 15.1603 38.4866 15.4853 38.6426 15.6933C40.7356 13.9253 41.3076 11.0133 41.4636 7.67232H43.3616C43.2576 12.4173 43.1146 14.1203 42.8156 14.4973C42.6986 14.6663 42.5686 14.7053 42.3476 14.7053C42.1006 14.7053 41.4896 14.6923 40.8006 14.6273C40.9566 14.8873 41.0606 15.2773 41.0736 15.5373C41.7106 15.5633 42.3476 15.5763 42.7376 15.5373C43.1406 15.4983 43.3876 15.3943 43.6216 15.0563C44.0376 14.5103 44.1546 12.7033 44.2716 7.23032V6.76232Z" fill="white"/>
    <defs>
        <filter id="filter0_d" x="0.000976562" y="0" width="67.2474" height="24.8711" filterUnits="userSpaceOnUse" color-interpolation-filters="sRGB">
            <feFlood flood-opacity="0" result="BackgroundImageFix"/>
            <feColorMatrix in="SourceAlpha" type="matrix" values="0 0 0 0 0 0 0 0 0 0 0 0 0 0 0 0 0 0 127 0" result="hardAlpha"/>
            <feOffset dy="1"/>
            <feColorMatrix type="matrix" values="0 0 0 0 0 0 0 0 0 0 0 0 0 0 0 0 0 0 0.25 0"/>
            <feBlend mode="normal" in2="BackgroundImageFix" result="effect1_dropShadow"/>
            <feBlend mode="normal" in="SourceGraphic" in2="effect1_dropShadow" result="shape"/>
        </filter>
    </defs>
</svg>
