<svg width="68" height="27" viewBox="0 0 68 27" fill="none" xmlns="http://www.w3.org/2000/svg">
<path d="M0.0250388 23.5116C0.0250388 23.5116 -0.58462 26.7383 4.21269 26.7383L6 26.7383V12.7391C6 12.7391 0.0250388 12.4328 0.0250388 23.5116Z" fill="#D3A01D"/>
<g filter="url(#filter0_d)">
<path d="M0.00492955 4.49921V23.8711C0.0742697 21.03 1.24315 19.9987 4.45261 19.9886L58.6973 19.9886C59.0897 19.9858 59.4766 19.8936 59.8297 19.7187C60.1827 19.5438 60.493 19.2906 60.7379 18.9776L66.6813 11.3845C67.0568 10.9045 67.2571 10.3062 67.2481 9.69204C67.2391 9.07787 67.0212 8.486 66.6318 8.01769L60.7775 0.940285C60.5346 0.645448 60.2313 0.408486 59.889 0.246044C59.5468 0.0836019 59.1738 -0.000378894 58.7964 1.28505e-06L4.45261 0C1.02522 0.0202212 -0.0743163 1.19305 0.00492955 4.49921Z" fill="#FFBC0F"/>
</g>
<path d="M19.3176 11.3903V9.62232H21.2676V10.7143C21.2676 10.9353 21.2546 11.1693 21.2416 11.3903H19.3176ZM24.1666 9.62232V11.3903H22.1126C22.1256 11.1693 22.1386 10.9613 22.1386 10.7403V9.62232H24.1666ZM19.5906 6.82732C20.4746 6.16432 21.2416 5.38432 21.7356 4.65632C22.2686 5.39732 23.1006 6.19032 23.9716 6.82732H19.5906ZM25.0506 12.1833V8.84232H22.1386V7.64632H24.2186V6.99632C24.5956 7.25632 24.9726 7.49032 25.3366 7.68532C25.4666 7.41232 25.6746 7.07432 25.8566 6.84032C24.4916 6.24232 23.0486 5.08532 22.1256 3.79832H21.2546C20.6176 4.90332 19.3696 6.06032 18.0306 6.77532V6.55432H16.6266V3.77232H15.7166V6.55432H13.8966V7.45132H15.6386C15.2486 9.21932 14.4296 11.2603 13.6236 12.3523C13.7796 12.5733 14.0136 12.9503 14.1306 13.1973C14.7156 12.3653 15.2876 11.0263 15.7166 9.62232V15.6283H16.6266V9.54432C17.0166 10.1813 17.4716 11.0003 17.6536 11.4163L18.1866 10.6493C17.9786 10.3113 16.9906 8.89432 16.6266 8.42632V7.45132H18.0306V7.37332C18.0956 7.49032 18.1606 7.60732 18.1996 7.71132C18.5766 7.51632 18.9406 7.29532 19.2916 7.04832V7.64632H21.2676V8.84232H18.4596V12.1833H21.0726C20.7346 13.2623 19.8376 14.2633 17.5756 14.9783C17.7446 15.1343 18.0176 15.4983 18.0956 15.7063C20.3186 14.9653 21.3456 13.8993 21.8136 12.7293C22.5806 14.3543 23.6596 15.1083 25.2066 15.7063C25.3106 15.4333 25.5446 15.0953 25.7656 14.8873C24.2706 14.3803 23.2306 13.7433 22.4896 12.1833H25.0506ZM31.3686 4.22732H27.4036V5.00732H31.3686V4.22732ZM30.4586 11.9363V14.1203H28.1836V11.9363H30.4586ZM31.3296 11.1433H27.3256V15.4983H28.1836V14.9003H31.3296V11.1433ZM27.3386 10.1813H31.3686V9.40132H27.3386V10.1813ZM27.3386 8.45232H31.3686V7.68532H27.3386V8.45232ZM26.7276 6.72332H31.8366V5.93032H26.7276V6.72332ZM38.6486 6.74932H37.0626V3.78532H36.1266V6.74932H32.0186V7.67232H36.1266V14.3023C36.1266 14.5623 36.0356 14.6273 35.7886 14.6403C35.5416 14.6403 34.7096 14.6533 33.8126 14.6273C33.9686 14.9003 34.1246 15.3683 34.1766 15.6283C35.2946 15.6283 36.0616 15.6153 36.4776 15.4463C36.8936 15.2773 37.0626 14.9913 37.0626 14.3023V7.67232H38.6486V6.74932ZM35.0996 11.9753C34.8136 11.1433 34.1116 9.90832 33.4356 8.99832L32.6296 9.38832C33.2796 10.3243 33.9686 11.5983 34.2676 12.4173L35.0996 11.9753ZM46.1496 10.4803V7.03532H49.8806V10.4803H46.1496ZM41.4306 10.4803V7.03532H45.1486V10.4803H41.4306ZM46.1496 6.08632V3.77232H45.1486V6.08632H40.4816V12.2353H41.4306V11.4293H45.1486V15.6413H46.1496V11.4293H49.8806V12.1703H50.8686V6.08632H46.1496Z" fill="white"/>
<defs>
<filter id="filter0_d" x="0.000976562" y="0" width="67.2474" height="24.8711" filterUnits="userSpaceOnUse" color-interpolation-filters="sRGB">
<feFlood flood-opacity="0" result="BackgroundImageFix"/>
<feColorMatrix in="SourceAlpha" type="matrix" values="0 0 0 0 0 0 0 0 0 0 0 0 0 0 0 0 0 0 127 0" result="hardAlpha"/>
<feOffset dy="1"/>
<feColorMatrix type="matrix" values="0 0 0 0 0 0 0 0 0 0 0 0 0 0 0 0 0 0 0.25 0"/>
<feBlend mode="normal" in2="BackgroundImageFix" result="effect1_dropShadow"/>
<feBlend mode="normal" in="SourceGraphic" in2="effect1_dropShadow" result="shape"/>
</filter>
</defs>
</svg>
