<svg width="68" height="27" viewBox="0 0 68 27" fill="none" xmlns="http://www.w3.org/2000/svg">
<path d="M0.0250388 23.5116C0.0250388 23.5116 -0.58462 26.7383 4.21269 26.7383L6 26.7383V12.7391C6 12.7391 0.0250388 12.4328 0.0250388 23.5116Z" fill="#C33A3A"/>
<g filter="url(#filter0_d)">
<path d="M0.00492955 4.49921V23.8711C0.0742697 21.03 1.24315 19.9987 4.45261 19.9886L58.6973 19.9886C59.0897 19.9858 59.4766 19.8936 59.8297 19.7187C60.1827 19.5438 60.493 19.2906 60.7379 18.9776L66.6813 11.3845C67.0568 10.9045 67.2571 10.3062 67.2481 9.69204C67.2391 9.07787 67.0212 8.486 66.6318 8.01769L60.7775 0.940285C60.5346 0.645448 60.2313 0.408486 59.889 0.246044C59.5468 0.0836019 59.1738 -0.000378894 58.7964 1.28505e-06L4.45261 0C1.02522 0.0202212 -0.0743163 1.19305 0.00492955 4.49921Z" fill="#EB5757"/>
</g>
<path d="M24.1996 9.36232L22.6136 9.81732V7.28232H24.1866V6.38532H22.6136V3.78532H21.6776V6.38532H19.8186V7.28232H21.6776V10.0773C20.9106 10.2853 20.2086 10.4673 19.6366 10.5973L19.9226 11.5463L21.6776 11.0263V14.5233C21.6776 14.7183 21.5996 14.7833 21.4306 14.7833C21.2616 14.7833 20.7026 14.7833 20.0916 14.7703C20.2216 15.0173 20.3386 15.4203 20.3776 15.6413C21.2746 15.6543 21.8076 15.6283 22.1456 15.4853C22.4836 15.3293 22.6136 15.0693 22.6136 14.5233V10.7533L24.3166 10.2463L24.1996 9.36232ZM29.9456 8.29632V10.8313H25.7856V8.29632H29.9456ZM31.6356 13.9253H25.7856V11.7283H30.8946V7.39932H25.7856V5.34532H31.4536V4.44832H24.8366V15.6413H25.7856V14.8223H31.6356V13.9253ZM38.1876 10.4023H39.1496V6.43732C39.5006 6.12532 39.8256 5.77432 40.1246 5.42332H44.2846V4.51332H33.0916V5.42332H38.8246C37.3296 6.99632 35.0026 8.25732 32.7016 9.01132C32.9096 9.21932 33.2346 9.66132 33.3776 9.88232C35.0286 9.25832 36.7446 8.36132 38.1876 7.25632V10.4023ZM41.9186 11.6243V14.1593H35.4966V11.6243H41.9186ZM34.5216 15.6543H35.4966V15.0303H41.9186V15.6283H42.9456V10.7663H34.5216V15.6543ZM39.6956 7.33432C41.1906 7.94532 42.9716 8.98532 43.9076 9.73932L44.5966 9.01132C43.6476 8.29632 41.8666 7.29532 40.3846 6.68432L39.6956 7.33432Z" fill="white"/>
<defs>
<filter id="filter0_d" x="0.000976562" y="0" width="67.2474" height="24.8711" filterUnits="userSpaceOnUse" color-interpolation-filters="sRGB">
<feFlood flood-opacity="0" result="BackgroundImageFix"/>
<feColorMatrix in="SourceAlpha" type="matrix" values="0 0 0 0 0 0 0 0 0 0 0 0 0 0 0 0 0 0 127 0" result="hardAlpha"/>
<feOffset dy="1"/>
<feColorMatrix type="matrix" values="0 0 0 0 0 0 0 0 0 0 0 0 0 0 0 0 0 0 0.25 0"/>
<feBlend mode="normal" in2="BackgroundImageFix" result="effect1_dropShadow"/>
<feBlend mode="normal" in="SourceGraphic" in2="effect1_dropShadow" result="shape"/>
</filter>
</defs>
</svg>
