<svg width="68" height="27" viewBox="0 0 68 27" fill="none" xmlns="http://www.w3.org/2000/svg">
<path d="M0.0250388 23.5116C0.0250388 23.5116 -0.58462 26.7383 4.21269 26.7383L6 26.7383V12.7391C6 12.7391 0.0250388 12.4328 0.0250388 23.5116Z" fill="#33A16D"/>
<g filter="url(#filter0_d)">
<path d="M0.00492955 4.49921V23.8711C0.0742697 21.03 1.24315 19.9987 4.45261 19.9886L58.6973 19.9886C59.0897 19.9858 59.4766 19.8936 59.8297 19.7187C60.1827 19.5438 60.493 19.2906 60.7379 18.9776L66.6813 11.3845C67.0568 10.9045 67.2571 10.3062 67.2481 9.69204C67.2391 9.07787 67.0212 8.486 66.6318 8.01769L60.7775 0.940285C60.5346 0.645448 60.2313 0.408486 59.889 0.246044C59.5468 0.0836019 59.1738 -0.000378894 58.7964 1.28505e-06L4.45261 0C1.02522 0.0202212 -0.0743163 1.19305 0.00492955 4.49921Z" fill="#2CD282"/>
</g>
<path d="M17.4846 12.2093C16.7566 13.1843 15.3006 14.3153 14.0266 14.9783C14.2606 15.1603 14.6116 15.4723 14.7936 15.6673C16.0936 14.9133 17.5626 13.7173 18.4856 12.5993L17.4846 12.2093ZM20.8126 12.6903C22.0346 13.6003 23.5946 14.8873 24.3616 15.6543L25.2716 15.0563C24.4526 14.2893 22.8406 13.0413 21.6446 12.1963L20.8126 12.6903ZM17.8356 7.45132H21.5276V10.5193H17.8356V7.45132ZM22.5156 10.5193V7.45132H25.0896V6.51532H22.5156V3.88932H21.5276V6.51532H17.8356V3.88932H16.8606V6.51532H14.3906V7.45132H16.8606V10.5193H13.8706V11.4553H25.5576V10.5193H22.5156ZM35.8926 10.0513H30.4716V8.73832H35.8926V10.0513ZM30.4716 12.2483V10.8833H35.8926V12.2483H30.4716ZM38.3626 6.35932V5.44932H31.7456C31.9406 4.98132 32.0966 4.48732 32.2526 4.00632L31.2906 3.77232C31.1346 4.33132 30.9396 4.89032 30.7186 5.44932H27.0526V6.35932H30.3156C29.4836 8.07532 28.3006 9.63532 26.7406 10.6883C26.9356 10.8703 27.2346 11.2213 27.3646 11.4293C28.1836 10.8573 28.8986 10.1553 29.5226 9.38832V15.6413H30.4716V13.0803H35.8926V14.4323C35.8926 14.6273 35.8146 14.6923 35.5936 14.7053C35.3596 14.7053 34.5796 14.7183 33.7216 14.6793C33.8516 14.9523 33.9946 15.3423 34.0336 15.6283C35.1386 15.6283 35.8666 15.6153 36.2956 15.4593C36.7116 15.3033 36.8416 15.0173 36.8416 14.4323V7.86732H30.5756C30.8616 7.38632 31.1216 6.86632 31.3686 6.35932H38.3626ZM46.1496 10.4803V7.03532H49.8806V10.4803H46.1496ZM41.4306 10.4803V7.03532H45.1486V10.4803H41.4306ZM46.1496 6.08632V3.77232H45.1486V6.08632H40.4816V12.2353H41.4306V11.4293H45.1486V15.6413H46.1496V11.4293H49.8806V12.1703H50.8686V6.08632H46.1496Z" fill="white"/>
<defs>
<filter id="filter0_d" x="0.000976562" y="0" width="67.2474" height="24.8711" filterUnits="userSpaceOnUse" color-interpolation-filters="sRGB">
<feFlood flood-opacity="0" result="BackgroundImageFix"/>
<feColorMatrix in="SourceAlpha" type="matrix" values="0 0 0 0 0 0 0 0 0 0 0 0 0 0 0 0 0 0 127 0" result="hardAlpha"/>
<feOffset dy="1"/>
<feColorMatrix type="matrix" values="0 0 0 0 0 0 0 0 0 0 0 0 0 0 0 0 0 0 0.25 0"/>
<feBlend mode="normal" in2="BackgroundImageFix" result="effect1_dropShadow"/>
<feBlend mode="normal" in="SourceGraphic" in2="effect1_dropShadow" result="shape"/>
</filter>
</defs>
</svg>
