<svg width="24" height="24" viewBox="0 0 24 24" fill="none" xmlns="http://www.w3.org/2000/svg">
<g clip-path="url(#clip0)">
<path d="M23.6155 17.2685C23.456 16.6744 23.1245 16.1562 22.6637 15.7669C23.1887 13.7549 23.1274 11.655 22.4782 9.64992C21.7482 7.39552 20.3435 5.47753 18.4158 4.10334C17.9937 3.80241 17.407 3.89995 17.1055 4.32127C16.804 4.74253 16.9018 5.328 17.3239 5.62889C18.9213 6.76758 20.0854 8.35739 20.6906 10.2263C21.2037 11.811 21.2742 13.4664 20.9033 15.0613C19.8074 14.9971 18.7147 15.5368 18.1293 16.5471C17.7292 17.2376 17.6228 18.0422 17.8296 18.8125C18.0366 19.5834 18.5324 20.2276 19.2257 20.6265C20.6496 21.4457 22.4869 20.9646 23.3159 19.5338C23.716 18.8434 23.8224 18.0388 23.6155 17.2685ZM21.6896 18.5955C21.3818 19.1266 20.6974 19.3092 20.164 19.0023C20.164 19.0023 20.164 19.0023 20.1639 19.0023C19.9058 18.8537 19.7212 18.6141 19.6442 18.3273C19.5674 18.0412 19.6069 17.7422 19.7556 17.4856C20.2493 16.6335 21.5434 16.7946 21.801 17.7538C21.8778 18.0399 21.8382 18.3389 21.6896 18.5955ZM1.88518 12.9676C1.9163 12.9706 1.94714 12.9721 1.97775 12.9721C2.45532 12.9721 2.86397 12.6102 2.91146 12.126C3.10238 10.1784 3.90193 8.379 5.22366 6.92231C6.345 5.6865 7.74938 4.79752 9.32208 4.32009C9.81446 5.29814 10.8295 5.97131 12 5.97131C13.6513 5.97131 14.9948 4.63195 14.9948 2.98566C14.9948 1.33936 13.6513 0 12 0C10.5337 0 9.31097 1.05633 9.05517 2.44556C7.04386 2.99822 5.24925 4.10109 3.83114 5.66395C2.23678 7.42106 1.27228 9.59245 1.0418 11.9434C0.991269 12.4587 1.36889 12.9172 1.88518 12.9676ZM12 1.87481C12.6154 1.87481 13.1161 2.37314 13.1161 2.9857C13.1161 3.59827 12.6154 4.09655 12 4.09655C11.3842 4.09655 10.8837 3.59798 10.8837 2.98566C10.8837 2.37309 11.3845 1.87481 12 1.87481ZM15.7655 21.3121C13.9768 22.1215 12.0125 22.3312 10.085 21.9189C8.45147 21.5694 6.97772 20.8029 5.77707 19.686C5.952 19.4213 6.08564 19.1278 6.1703 18.8126C6.37716 18.0422 6.27071 17.2377 5.87063 16.5471C5.04497 15.1222 3.21014 14.632 1.78046 15.4545C1.08718 15.8534 0.591332 16.4976 0.384379 17.2685C0.177566 18.0388 0.283972 18.8434 0.684097 19.5339C1.41877 20.8019 2.94863 21.3272 4.28232 20.853C5.7683 22.3125 7.62403 23.3097 9.69122 23.752C11.9704 24.2396 14.3421 24.0146 16.5413 23.0197C17.0137 22.8059 17.2231 22.2504 17.0089 21.7788C16.7946 21.3074 16.2379 21.0984 15.7655 21.3121ZM4.35568 18.3273C4.10147 19.2741 2.80889 19.456 2.31033 18.5955C2.16164 18.3389 2.12208 18.0399 2.19891 17.7538C2.27588 17.467 2.46047 17.2274 2.71866 17.0788C3.25172 16.7721 3.93624 16.954 4.24425 17.4856C4.39294 17.7422 4.43255 18.0412 4.35568 18.3273Z" fill="#DEA89B"/>
</g>
<defs>
<clipPath id="clip0">
<rect width="24" height="24" fill="white"/>
</clipPath>
</defs>
</svg>
