<svg width="56" height="56" viewBox="0 0 56 56" fill="none" xmlns="http://www.w3.org/2000/svg">
    <circle cx="28" cy="28" r="28" fill="#EB5757"/>
    <g clip-path="url(#clip0)">
        <path d="M31 29C30.447 29 30 29.448 30 30V34C30 34.551 29.552 35 29 35H26V20C26 19.146 25.456 18.383 24.638 18.099L24.342 18H29C29.552 18 30 18.449 30 19V22C30 22.552 30.447 23 31 23C31.553 23 32 22.552 32 22V19C32 17.346 30.654 16 29 16H18.25C18.212 16 18.18 16.017 18.143 16.022C18.095 16.018 18.049 16 18 16C16.897 16 16 16.897 16 18V36C16 36.854 16.544 37.617 17.362 37.901L23.38 39.907C23.584 39.97 23.787 40 24 40C25.103 40 26 39.103 26 38V37H29C30.654 37 32 35.654 32 34V30C32 29.448 31.553 29 31 29Z" fill="white"/>
        <path d="M39.707 25.2929L35.707 21.2929C35.421 21.0069 34.991 20.9209 34.617 21.0759C34.244 21.2309 34 21.5959 34 21.9999V24.9999H30C29.448 24.9999 29 25.4479 29 25.9999C29 26.5519 29.448 26.9999 30 26.9999H34V29.9999C34 30.4039 34.244 30.7689 34.617 30.9239C34.991 31.0789 35.421 30.9929 35.707 30.7069L39.707 26.7069C40.098 26.3159 40.098 25.6839 39.707 25.2929Z" fill="white"/>
    </g>
    <defs>
        <clipPath id="clip0">
            <rect width="24" height="24" fill="white" transform="translate(16 16)"/>
        </clipPath>
    </defs>
</svg>
