<svg width="158" height="146" viewBox="0 0 158 146" fill="none" xmlns="http://www.w3.org/2000/svg">
<circle cx="71.9433" cy="71.927" r="71.7747" fill="#F1F1F1"/>
<circle cx="71.3564" cy="72.0494" r="41.9195" fill="#F1F1F1" stroke="#C4C4C4" stroke-width="2"/>
<circle cx="71.3564" cy="72.0494" r="29.6568" fill="#FFFEFF" stroke="#C4C4C4" stroke-width="2"/>
<path d="M71.3562 49.5109C71.3562 49.0608 70.991 48.6943 70.5411 48.71C64.9085 48.9066 59.526 51.1351 55.3978 54.9989C51.2695 58.8628 48.6901 64.0862 48.1217 69.6935C48.0763 70.1414 48.4178 70.53 48.867 70.5598C49.3162 70.5895 49.7029 70.2491 49.7495 69.8014C50.2898 64.607 52.6856 59.7703 56.5118 56.1892C60.338 52.6081 65.3224 50.5372 70.5411 50.3414C70.991 50.3245 71.3562 49.9611 71.3562 49.5109Z" fill="#C4C4C4"/>
<rect x="104.033" y="117.563" width="14" height="42" rx="7" transform="rotate(-45 104.033 117.563)" fill="#F1F1F1" stroke="#C4C4C4" stroke-width="2"/>
<rect x="118.809" y="120.934" width="1.94836" height="16.3364" rx="0.974179" transform="rotate(-45 118.809 120.934)" fill="white"/>
<rect x="102.611" y="107.656" width="2" height="8" transform="rotate(-45 102.611 107.656)" fill="#C4C4C4"/>
<rect x="123.831" y="67.0132" width="20" height="2" rx="1" fill="#C4C4C4"/>
<rect x="0.168579" y="83.5581" width="20" height="2" rx="1" fill="#C4C4C4"/>
<rect x="147.831" y="67.0132" width="10" height="2" rx="1" fill="#C4C4C4"/>
<rect x="128.831" y="74.3511" width="10" height="2" rx="1" fill="#C4C4C4"/>
<rect x="5.16858" y="90.896" width="10" height="2" rx="1" fill="#C4C4C4"/>
</svg>
