<svg width="24" height="24" viewBox="0 0 24 24" fill="none" xmlns="http://www.w3.org/2000/svg">
<path d="M12 11.4782C14.017 11.4782 15.6521 9.84306 15.6521 7.82602C15.6521 5.80897 14.017 4.17383 12 4.17383C9.98291 4.17383 8.34778 5.80897 8.34778 7.82602C8.34778 9.84306 9.98291 11.4782 12 11.4782Z" fill="#75C3E2"/>
<path d="M19.3044 13.5653C20.7451 13.5653 21.913 12.3973 21.913 10.9566C21.913 9.51585 20.7451 8.3479 19.3044 8.3479C17.8636 8.3479 16.6957 9.51585 16.6957 10.9566C16.6957 12.3973 17.8636 13.5653 19.3044 13.5653Z" fill="#75C3E2"/>
<path d="M4.76975 13.5653C6.21048 13.5653 7.37842 12.3973 7.37842 10.9566C7.37842 9.51585 6.21048 8.3479 4.76975 8.3479C3.32901 8.3479 2.16107 9.51585 2.16107 10.9566C2.16107 12.3973 3.32901 13.5653 4.76975 13.5653Z" fill="#75C3E2"/>
<path d="M12 12.5217C8.26013 12.5217 5.21735 15.5645 5.21735 19.3043C5.21735 19.5923 5.4511 19.8261 5.7391 19.8261H18.2608C18.5488 19.8261 18.7826 19.5923 18.7826 19.3043C18.7826 15.5645 15.7398 12.5217 12 12.5217Z" fill="#75C3E2"/>
<path d="M5.66921 14.7213C5.34991 14.6535 5.02537 14.6086 4.69565 14.6086C2.10678 14.6086 0 16.7154 0 19.3043C0 19.5923 0.233755 19.826 0.521755 19.826H4.26991C4.21146 19.6622 4.17389 19.488 4.17389 19.3043C4.17389 17.5919 4.73321 16.0111 5.66921 14.7213Z" fill="#75C3E2"/>
<path d="M19.3044 14.6086C18.9747 14.6086 18.6501 14.6535 18.3308 14.7213C19.2668 16.0111 19.8261 17.5919 19.8261 19.3043C19.8261 19.488 19.7886 19.6622 19.7301 19.826H23.4783C23.7663 19.826 24 19.5923 24 19.3043C24 16.7154 21.8932 14.6086 19.3044 14.6086Z" fill="#75C3E2"/>
</svg>
