<svg width="24" height="24" viewBox="0 0 24 24" fill="none" xmlns="http://www.w3.org/2000/svg">
    <g clip-path="url(#clip0)">
        <path fill-rule="evenodd" clip-rule="evenodd" d="M21.348 5.50812L12.2786 0.11261C12.0265 -0.0375366 11.7125 -0.0375366 11.4604 0.11261L2.39099 5.50812C2.14856 5.65216 2 5.91364 2 6.19562V9.2757C2 15.7628 5.74817 21.688 11.5807 23.9461C11.7664 24.0179 11.9724 24.0181 12.1583 23.9461C17.9767 21.6937 21.7389 15.7813 21.7389 9.2757V6.19562C21.739 5.91339 21.5905 5.65216 21.348 5.50812ZM13.8695 11.0001H14.1195C14.5328 11.0001 14.8695 11.3365 14.8695 11.7501V15.2501C14.8695 15.6636 14.5328 16.0001 14.1195 16.0001H9.61951C9.20618 16.0001 8.86951 15.6636 8.86951 15.2501V11.7501C8.86951 11.3365 9.20618 11.0001 9.61951 11.0001H9.86951V10.0001C9.86951 8.89703 10.7665 8.00006 11.8695 8.00006C12.9725 8.00006 13.8695 8.89703 13.8695 10.0001V11.0001ZM11.8695 8.66681C11.1342 8.66681 10.5361 9.26471 10.5361 10.0001V11.0001H13.2029V10.0001C13.2029 9.26471 12.6049 8.66681 11.8695 8.66681ZM12.2029 14.3333V13.574C12.4011 13.4583 12.5361 13.2457 12.5361 13.0001C12.5361 12.6324 12.2372 12.3333 11.8695 12.3333C11.5018 12.3333 11.2029 12.6324 11.2029 13.0001C11.2029 13.2457 11.3379 13.4583 11.5361 13.574V14.3333C11.5361 14.5174 11.6852 14.6668 11.8695 14.6668C12.0538 14.6668 12.2029 14.5174 12.2029 14.3333Z" fill="#A39BDD"/>
    </g>
    <defs>
        <clipPath id="clip0">
            <rect width="24" height="24" fill="white"/>
        </clipPath>
    </defs>
</svg>
