<svg width="40" height="40" viewBox="0 0 40 40" fill="none" xmlns="http://www.w3.org/2000/svg">
<circle opacity="0.3" cx="20" cy="20" r="20" fill="#61B3FF"/>
<path d="M11.7333 10.6667C11.4504 10.6667 11.1791 10.7791 10.979 10.9792C10.779 11.1792 10.6666 11.4505 10.6666 11.7334V16.0001H16V10.6667H11.7333ZM14.6666 14.6667H12V12.0001H14.6666V14.6667Z" fill="#279FFD"/>
<path d="M10.6666 28.2667C10.6666 28.5496 10.779 28.8209 10.979 29.0209C11.1791 29.221 11.4504 29.3333 11.7333 29.3333H16V24H10.6666V28.2667ZM12 25.3333H14.6666V28H12V25.3333Z" fill="#279FFD"/>
<path d="M24 29.3333H28.2667C28.5496 29.3333 28.8209 29.221 29.0209 29.0209C29.221 28.8209 29.3333 28.5496 29.3333 28.2667V24H24V29.3333ZM25.3333 25.3333H28V28H25.3333V25.3333Z" fill="#279FFD"/>
<path d="M28.2667 10.6667H24V16.0001H29.3333V11.7334C29.3333 11.4505 29.221 11.1792 29.0209 10.9792C28.8209 10.7791 28.5496 10.6667 28.2667 10.6667ZM28 14.6667H25.3333V12.0001H28V14.6667Z" fill="#279FFD"/>
<path d="M21.3333 14.6666V13.3333H18.6666V15.9999H20V14.6666H21.3333Z" fill="#279FFD"/>
<path d="M16 16H17.3333V17.3333H16V16Z" fill="#279FFD"/>
<path d="M17.3334 17.3333H20V18.6666H17.3334V17.3333Z" fill="#279FFD"/>
<path d="M21.3334 12.0001V13.3334H22.6667V10.6667H17.3334V13.3334H18.6667V12.0001H21.3334Z" fill="#279FFD"/>
<path d="M10.6666 17.3333H12V19.9999H10.6666V17.3333Z" fill="#279FFD"/>
<path d="M16 18.6666V19.9999H14.6666V17.3333H13.3333V19.9999H12V21.3333H10.6666V22.6666H13.3333V21.3333H14.6666V22.6666H16V21.3333H17.3333V18.6666H16Z" fill="#279FFD"/>
<path d="M21.3333 18.6667H22.6667V20.0001H24V18.6667H25.3333V17.3334H22.6667V14.6667H21.3333V16.0001H20V17.3334H21.3333V18.6667Z" fill="#279FFD"/>
<path d="M20 28.0001H17.3334V29.3334H22.6667V28.0001H21.3334V26.6667H20V28.0001Z" fill="#279FFD"/>
<path d="M22.6666 21.3334V20.0001H21.3333V18.6667H20V20.0001H18.6666V21.3334H20V22.6667H21.3333V21.3334H22.6666Z" fill="#279FFD"/>
<path d="M28 21.3333H29.3333V22.6666H28V21.3333Z" fill="#279FFD"/>
<path d="M22.6666 21.3333H26.6666V22.6666H22.6666V21.3333Z" fill="#279FFD"/>
<path d="M28 17.3333H26.6667V18.6666H25.3334V19.9999H26.6667V21.3332H28V19.9999H29.3334V18.6666H28V17.3333Z" fill="#279FFD"/>
<path d="M21.3335 22.6667H22.6668V26.6667H21.3335V22.6667Z" fill="#279FFD"/>
<path d="M17.3334 26.6666H18.6667V25.3333H20V23.9999H18.6667V21.3333H17.3334V26.6666Z" fill="#279FFD"/>
</svg>
