<svg width="18" height="18" viewBox="0 0 18 18" fill="none" xmlns="http://www.w3.org/2000/svg">
    <path d="M2.79994 2C2.58777 2 2.38428 2.08429 2.23425 2.23431C2.08422 2.38434 1.99994 2.58783 1.99994 2.8V6H5.99994V2H2.79994ZM4.99994 5H2.99994V3H4.99994V5Z" fill="#576169"/>
    <path d="M1.99994 15.2C1.99994 15.4122 2.08422 15.6157 2.23425 15.7657C2.38428 15.9157 2.58777 16 2.79994 16H5.99994V12H1.99994V15.2ZM2.99994 13H4.99994V15H2.99994V13Z" fill="#576169"/>
    <path d="M12 16H15.2C15.4122 16 15.6157 15.9157 15.7657 15.7657C15.9157 15.6157 16 15.4122 16 15.2V12H12V16ZM13 13H15V15H13V13Z" fill="#576169"/>
    <path d="M15.2 2H12V6H16V2.8C16 2.58783 15.9157 2.38434 15.7657 2.23431C15.6157 2.08429 15.4122 2 15.2 2ZM15 5H13V3H15V5Z" fill="#576169"/>
    <path d="M9.99995 5V4H7.99994V6H8.99994V5H9.99995Z" fill="#576169"/>
    <path d="M6 6H7V7H6V6Z" fill="#576169"/>
    <path d="M7.00006 7H9.00006V8H7.00006V7Z" fill="#576169"/>
    <path d="M10.0001 3V4H11.0001V2H7.00006V4H8.00006V3H10.0001Z" fill="#576169"/>
    <path d="M1.99994 7H2.99994V8.99999H1.99994V7Z" fill="#576169"/>
    <path d="M5.99994 8V9H4.99994V7H3.99994V9H2.99994V10H1.99994V11H3.99994V10H4.99994V11H5.99994V10H6.99994V8H5.99994Z" fill="#576169"/>
    <path d="M10 8H11V9H12V8H13V7H11V5H10V6H9V7H10V8Z" fill="#576169"/>
    <path d="M9.00006 15H7.00006V16H11.0001V15H10.0001V14H9.00006V15Z" fill="#576169"/>
    <path d="M10.9999 10V9H9.99994V8H8.99994V9H7.99994V10H8.99994V11H9.99994V10H10.9999Z" fill="#576169"/>
    <path d="M15 10H16V11H15V10Z" fill="#576169"/>
    <path d="M10.9999 10H13.9999V11H10.9999V10Z" fill="#576169"/>
    <path d="M15.0001 7H14.0001V8H13.0001V9H14.0001V9.99999H15.0001V9H16.0001V8H15.0001V7Z" fill="#576169"/>
    <path d="M10.0001 11H11.0001V14H10.0001V11Z" fill="#576169"/>
    <path d="M7.00006 14H8.00006V13H9.00006V12H8.00006V10H7.00006V14Z" fill="#576169"/>
</svg>
