<svg width="44" height="44" viewBox="0 0 44 44" fill="none" xmlns="http://www.w3.org/2000/svg">
<rect width="44" height="44" rx="22" fill="#F2F3F7"/>
<path d="M13.7332 12.6665C13.4503 12.6665 13.179 12.7789 12.979 12.9789C12.7789 13.179 12.6666 13.4503 12.6666 13.7332V17.9998H17.9999V12.6665H13.7332ZM16.6666 16.6665H13.9999V13.9998H16.6666V16.6665Z" fill="#279FFD"/>
<path d="M12.6666 30.2667C12.6666 30.5496 12.7789 30.8209 12.979 31.0209C13.179 31.221 13.4503 31.3333 13.7332 31.3333H17.9999V26H12.6666V30.2667ZM13.9999 27.3333H16.6666V30H13.9999V27.3333Z" fill="#279FFD"/>
<path d="M26 31.3333H30.2667C30.5496 31.3333 30.8209 31.221 31.0209 31.0209C31.221 30.8209 31.3333 30.5496 31.3333 30.2667V26H26V31.3333ZM27.3333 27.3333H30V30H27.3333V27.3333Z" fill="#279FFD"/>
<path d="M30.2667 12.6665H26V17.9998H31.3333V13.7332C31.3333 13.4503 31.221 13.179 31.0209 12.9789C30.8209 12.7789 30.5496 12.6665 30.2667 12.6665ZM30 16.6665H27.3333V13.9998H30V16.6665Z" fill="#279FFD"/>
<path d="M23.3332 16.6668V15.3335H20.6666V18.0002H21.9999V16.6668H23.3332Z" fill="#279FFD"/>
<path d="M18 18H19.3333V19.3333H18V18Z" fill="#279FFD"/>
<path d="M19.3334 19.3335H22.0001V20.6668H19.3334V19.3335Z" fill="#279FFD"/>
<path d="M23.3334 13.9998V15.3332H24.6668V12.6665H19.3334V15.3332H20.6668V13.9998H23.3334Z" fill="#279FFD"/>
<path d="M12.6666 19.3335H13.9999V22.0002H12.6666V19.3335Z" fill="#279FFD"/>
<path d="M17.9999 20.6668V22.0002H16.6666V19.3335H15.3332V22.0002H13.9999V23.3335H12.6666V24.6668H15.3332V23.3335H16.6666V24.6668H17.9999V23.3335H19.3332V20.6668H17.9999Z" fill="#279FFD"/>
<path d="M23.3333 20.6665H24.6667V21.9998H26V20.6665H27.3333V19.3332H24.6667V16.6665H23.3333V17.9998H22V19.3332H23.3333V20.6665Z" fill="#279FFD"/>
<path d="M22.0001 29.9998H19.3334V31.3332H24.6668V29.9998H23.3334V28.6665H22.0001V29.9998Z" fill="#279FFD"/>
<path d="M24.6666 23.3332V21.9998H23.3332V20.6665H21.9999V21.9998H20.6666V23.3332H21.9999V24.6665H23.3332V23.3332H24.6666Z" fill="#279FFD"/>
<path d="M30 23.3335H31.3333V24.6668H30V23.3335Z" fill="#279FFD"/>
<path d="M24.6666 23.3335H28.6666V24.6668H24.6666V23.3335Z" fill="#279FFD"/>
<path d="M30.0001 19.3335H28.6668V20.6668H27.3334V22.0002H28.6668V23.3335H30.0001V22.0002H31.3334V20.6668H30.0001V19.3335Z" fill="#279FFD"/>
<path d="M23.3334 24.6665H24.6668V28.6665H23.3334V24.6665Z" fill="#279FFD"/>
<path d="M19.3334 28.6668H20.6668V27.3335H22.0001V26.0002H20.6668V23.3335H19.3334V28.6668Z" fill="#279FFD"/>
</svg>
