<svg width="24" height="24" viewBox="0 0 24 24" fill="none" xmlns="http://www.w3.org/2000/svg">
<circle cx="12" cy="12" r="12" fill="#61B3FF"/>
<path d="M7.0399 6.40015C6.87016 6.40015 6.70738 6.46757 6.58735 6.5876C6.46733 6.70762 6.3999 6.87041 6.3999 7.04015V9.60015H9.5999V6.40015H7.0399ZM8.7999 8.80015H7.1999V7.20015H8.7999V8.80015Z" fill="white"/>
<path d="M6.3999 16.9601C6.3999 17.1299 6.46733 17.2927 6.58735 17.4127C6.70738 17.5327 6.87016 17.6001 7.0399 17.6001H9.5999V14.4001H6.3999V16.9601ZM7.1999 15.2001H8.7999V16.8001H7.1999V15.2001Z" fill="white"/>
<path d="M14.4 17.6001H16.96C17.1297 17.6001 17.2925 17.5327 17.4125 17.4127C17.5325 17.2927 17.6 17.1299 17.6 16.9601V14.4001H14.4V17.6001ZM15.2 15.2001H16.8V16.8001H15.2V15.2001Z" fill="white"/>
<path d="M16.96 6.40015H14.4V9.60015H17.6V7.04015C17.6 6.87041 17.5325 6.70762 17.4125 6.5876C17.2925 6.46757 17.1297 6.40015 16.96 6.40015ZM16.8 8.80015H15.2V7.20015H16.8V8.80015Z" fill="white"/>
<path d="M12.8 8.8V8H11.2V9.6H12V8.8H12.8Z" fill="white"/>
<path d="M9.59998 9.6001H10.4V10.4001H9.59998V9.6001Z" fill="white"/>
<path d="M10.4 10.3999H12V11.1999H10.4V10.3999Z" fill="white"/>
<path d="M12.8 7.20015V8.00015H13.6V6.40015H10.4V8.00015H11.2V7.20015H12.8Z" fill="white"/>
<path d="M6.3999 10.3999H7.1999V11.9999H6.3999V10.3999Z" fill="white"/>
<path d="M9.5999 11.1999V11.9999H8.7999V10.3999H7.9999V11.9999H7.1999V12.7999H6.3999V13.5999H7.9999V12.7999H8.7999V13.5999H9.5999V12.7999H10.3999V11.1999H9.5999Z" fill="white"/>
<path d="M12.8 11.2H13.6V12H14.4V11.2H15.2V10.4H13.6V8.80005H12.8V9.60005H12V10.4H12.8V11.2Z" fill="white"/>
<path d="M12 16.8002H10.4V17.6002H13.6V16.8002H12.8V16.0002H12V16.8002Z" fill="white"/>
<path d="M13.6 12.8002V12.0002H12.8V11.2002H12V12.0002H11.2V12.8002H12V13.6002H12.8V12.8002H13.6Z" fill="white"/>
<path d="M16.8 12.8H17.6V13.6H16.8V12.8Z" fill="white"/>
<path d="M13.5999 12.8H15.9999V13.6H13.5999V12.8Z" fill="white"/>
<path d="M16.8 10.3999H16V11.1999H15.2V11.9999H16V12.7999H16.8V11.9999H17.6V11.1999H16.8V10.3999Z" fill="white"/>
<path d="M12.8 13.6001H13.6V16.0001H12.8V13.6001Z" fill="white"/>
<path d="M10.4 16H11.2V15.2H12V14.4H11.2V12.8H10.4V16Z" fill="white"/>
</svg>
