<svg width="56" height="56" viewBox="0 0 56 56" fill="none" xmlns="http://www.w3.org/2000/svg">
<path d="M28 0C12.5602 0 0 12.5602 0 28C0 43.4398 12.5602 56 28 56C43.4398 56 56 43.4398 56 28C56 12.5602 43.4398 0 28 0ZM28 44.3332C26.7119 44.3332 25.6668 43.2881 25.6668 42C25.6668 40.7119 26.7119 39.6668 28 39.6668C29.2881 39.6668 30.3332 40.7119 30.3332 42C30.3332 43.2881 29.2881 44.3332 28 44.3332ZM31.6935 29.4979C30.8677 29.8782 30.3332 30.7113 30.3332 31.6192V32.6668C30.3332 33.9545 29.2903 35 28 35C26.7097 35 25.6668 33.9545 25.6668 32.6668V31.6192C25.6668 28.8959 27.2673 26.3995 29.7385 25.2584C32.1161 24.1642 33.8332 21.2589 33.8332 19.8332C33.8332 16.6182 31.2176 14 28 14C24.7824 14 22.1668 16.6182 22.1668 19.8332C22.1668 21.1213 21.1235 22.1668 19.8332 22.1668C18.5429 22.1668 17.5 21.1213 17.5 19.8332C17.5 14.0444 22.2108 9.33319 28 9.33319C33.7892 9.33319 38.5 14.0444 38.5 19.8332C38.5 22.9858 35.7652 27.6198 31.6935 29.4979Z" fill="#FFBC0F"/>
</svg>
