<svg width="20" height="20" viewBox="0 0 20 20" fill="none" xmlns="http://www.w3.org/2000/svg">
<path d="M19.8104 18.9119L14.6468 13.8308C15.999 12.3616 16.8298 10.4187 16.8298 8.28068C16.8291 3.7071 13.062 0 8.41466 0C3.76731 0 0.000183105 3.7071 0.000183105 8.28068C0.000183105 12.8543 3.76731 16.5614 8.41466 16.5614C10.4226 16.5614 12.2643 15.8668 13.7109 14.7122L18.8946 19.8134C19.1472 20.0622 19.5573 20.0622 19.8098 19.8134C20.063 19.5646 20.063 19.1607 19.8104 18.9119ZM8.41466 15.2873C4.4825 15.2873 1.29487 12.1504 1.29487 8.28068C1.29487 4.41101 4.4825 1.27403 8.41466 1.27403C12.3469 1.27403 15.5345 4.41101 15.5345 8.28068C15.5345 12.1504 12.3469 15.2873 8.41466 15.2873Z" fill="#ADB0C9"/>
</svg>
