<svg width="24" height="24" viewBox="0 0 24 24" fill="none" xmlns="http://www.w3.org/2000/svg">
<g clip-path="url(#clip0)">
<path d="M21.4785 5.50798L12.4091 0.11243C12.157 -0.0374766 11.8431 -0.0374766 11.5911 0.11243L2.52154 5.50798C2.27915 5.65221 2.13055 5.91349 2.13055 6.19554V9.27555C2.13055 15.7628 5.87868 21.6879 11.7112 23.946C11.8969 24.0179 12.103 24.018 12.2889 23.946C18.1072 21.6935 21.8695 15.7812 21.8695 9.27555V6.19554C21.8695 5.91344 21.721 5.65221 21.4785 5.50798ZM15.9524 10.2023L10.9384 15.2164C10.626 15.5288 10.1195 15.5288 9.80704 15.2164L8.04735 13.4567C7.73493 13.1443 7.73493 12.6378 8.04735 12.3253C8.35977 12.013 8.86635 12.013 9.17873 12.3253L10.3727 13.5193L14.821 9.07095C15.1334 8.75857 15.64 8.75857 15.9524 9.07095C16.2649 9.38341 16.2649 9.88995 15.9524 10.2023Z" fill="#C0DA9A"/>
</g>
<defs>
<clipPath id="clip0">
<rect width="24" height="24" fill="white"/>
</clipPath>
</defs>
</svg>
