<svg width="56" height="56" viewBox="0 0 56 56" fill="none" xmlns="http://www.w3.org/2000/svg">
<circle cx="28" cy="28" r="28" fill="#34C759"/>
<g clip-path="url(#clip0)">
<path d="M45.2676 16.0864C44.4669 15.2855 43.1707 15.2855 42.3699 16.0864L23.0219 35.4343L15.7634 28.1758C14.9627 27.3749 13.6666 27.3749 12.8658 28.1757C12.0669 28.9747 12.0669 30.2745 12.8658 31.0733L21.5732 39.7808C22.3738 40.5813 23.6701 40.5814 24.4708 39.7808L45.2676 18.9839C46.0663 18.185 46.0663 16.8851 45.2676 16.0864Z" fill="white"/>
<path d="M45.2675 16.0864C44.4668 15.2855 43.1707 15.2855 42.3699 16.0864L28.2471 30.2092V36.0043L45.2675 18.9839C46.0663 18.185 46.0663 16.8851 45.2675 16.0864Z" fill="white"/>
</g>
<defs>
<clipPath id="clip0">
<rect width="33.6" height="33.6" fill="white" transform="translate(12.2667 11.1334)"/>
</clipPath>
</defs>
</svg>
