<svg width="24" height="24" viewBox="0 0 24 24" fill="none" xmlns="http://www.w3.org/2000/svg">
<path fill-rule="evenodd" clip-rule="evenodd" d="M12 14.0003C8.54581 14.0003 5.43248 15.4597 3.24303 17.7956C2.14156 16.1347 1.5 14.1423 1.5 12C1.5 6.20101 6.20101 1.5 12 1.5C17.799 1.5 22.5 6.20101 22.5 12C22.5 14.1423 21.8584 16.1347 20.757 17.7956C18.5675 15.4597 15.4542 14.0003 12 14.0003ZM0 12C0 14.6124 0.834805 17.0299 2.2522 19.0002L2.25216 19.0002C4.43052 22.0283 7.985 24.0001 12 24.0001C16.015 24.0001 19.5695 22.0283 21.7479 19.0002L21.7478 19.0001C23.1652 17.0299 24 14.6124 24 12C24 5.37258 18.6274 0 12 0C5.37258 0 0 5.37258 0 12ZM12 11.9999C14.2091 11.9999 16 10.209 16 7.99986C16 5.79072 14.2091 3.99986 12 3.99986C9.79084 3.99986 7.99998 5.79072 7.99998 7.99986C7.99998 10.209 9.79084 11.9999 12 11.9999Z" fill="#6378EF"/>
</svg>
