<svg width="349" height="172" viewBox="0 0 349 172" fill="none" xmlns="http://www.w3.org/2000/svg">
<rect x="6" width="343" height="172" rx="4" fill="white"/>
<path d="M26.303 49.556C25.575 50.531 24.119 51.662 22.845 52.325C23.079 52.507 23.43 52.819 23.612 53.014C24.912 52.26 26.381 51.064 27.304 49.946L26.303 49.556ZM29.631 50.037C30.853 50.947 32.413 52.234 33.18 53.001L34.09 52.403C33.271 51.636 31.659 50.388 30.463 49.543L29.631 50.037ZM26.654 44.798H30.346V47.866H26.654V44.798ZM31.334 47.866V44.798H33.908V43.862H31.334V41.236H30.346V43.862H26.654V41.236H25.679V43.862H23.209V44.798H25.679V47.866H22.689V48.802H34.376V47.866H31.334ZM44.711 47.398H39.29V46.085H44.711V47.398ZM39.29 49.595V48.23H44.711V49.595H39.29ZM47.181 43.706V42.796H40.564C40.759 42.328 40.915 41.834 41.071 41.353L40.109 41.119C39.953 41.678 39.758 42.237 39.537 42.796H35.871V43.706H39.134C38.302 45.422 37.119 46.982 35.559 48.035C35.754 48.217 36.053 48.568 36.183 48.776C37.002 48.204 37.717 47.502 38.341 46.735V52.988H39.29V50.427H44.711V51.779C44.711 51.974 44.633 52.039 44.412 52.052C44.178 52.052 43.398 52.065 42.54 52.026C42.67 52.299 42.813 52.689 42.852 52.975C43.957 52.975 44.685 52.962 45.114 52.806C45.53 52.65 45.66 52.364 45.66 51.779V45.214H39.394C39.68 44.733 39.94 44.213 40.187 43.706H47.181ZM57.217 51.87C56.723 51.87 56.632 51.805 56.632 51.415V47.606H60.181V46.67H54.981V44.07H59.245V43.147H54.981V41.132H54.019V43.147H51.718C51.9 42.627 52.069 42.12 52.199 41.626L51.224 41.431C50.912 42.783 50.262 44.499 49.365 45.591C49.612 45.695 49.989 45.89 50.21 46.046C50.639 45.5 51.029 44.811 51.341 44.07H54.019V46.67H48.845V47.606H52.212C51.991 49.738 51.406 51.402 48.663 52.247C48.884 52.429 49.17 52.819 49.274 53.066C52.225 52.039 52.953 50.141 53.213 47.606H55.67V51.415C55.67 52.468 55.956 52.793 57.1 52.793H58.946C59.973 52.793 60.259 52.286 60.363 50.323C60.09 50.258 59.687 50.089 59.466 49.92C59.414 51.597 59.336 51.87 58.868 51.87H57.217ZM62.6504 52.0635C63.0566 52.0635 63.374 51.7461 63.374 51.3398C63.374 50.9336 63.0566 50.6162 62.6504 50.6162C62.2441 50.6162 61.9268 50.9336 61.9268 51.3398C61.9268 51.7461 62.2441 52.0635 62.6504 52.0635ZM62.6504 47.3916C63.0566 47.3916 63.374 47.0742 63.374 46.668C63.374 46.2617 63.0566 45.9443 62.6504 45.9443C62.2441 45.9443 61.9268 46.2617 61.9268 46.668C61.9268 47.0742 62.2441 47.3916 62.6504 47.3916Z" fill="#2F3842"/>
<path d="M77.743 38.822C76.757 41.389 75.108 43.905 73.391 45.52C73.612 45.809 73.986 46.472 74.105 46.744C74.751 46.098 75.38 45.35 75.992 44.5V54.241H77.182V42.681C77.845 41.576 78.44 40.369 78.916 39.179L77.743 38.822ZM89.32 43.429V42.239H82.809C83.013 41.219 83.2 40.148 83.37 39.06L82.078 38.907C81.908 40.063 81.721 41.168 81.5 42.239H78.1V43.429H81.228C80.412 46.846 79.171 49.736 77.233 51.708C77.539 51.929 78.032 52.439 78.236 52.677C79.562 51.232 80.565 49.43 81.364 47.322V47.781H84.22V52.558H79.987V53.765H89.269V52.558H85.461V47.781H88.929V46.625H81.619C81.976 45.622 82.265 44.551 82.537 43.429H89.32ZM100.047 50.994C98.67 51.606 97.31 52.201 96.375 52.558L96.868 53.493C97.888 53.017 99.078 52.439 100.268 51.861L100.047 50.994ZM101.611 51.436V47.968H100.523V53.153C100.523 53.289 100.489 53.34 100.319 53.34C100.149 53.34 99.639 53.34 99.061 53.323C99.197 53.612 99.35 54.003 99.401 54.275C100.217 54.275 100.761 54.275 101.135 54.105C101.509 53.952 101.611 53.68 101.611 53.17V51.589C102.852 52.184 104.348 53.085 105.113 53.68L105.844 52.932C105.011 52.337 103.413 51.436 102.223 50.858L101.611 51.436ZM100.166 46.489C100.387 46.064 100.574 45.622 100.744 45.146H101.764C101.917 45.622 102.104 46.064 102.308 46.489H100.166ZM92.839 48.58C92.873 48.07 92.873 47.577 92.873 47.118V46.557H94.879V48.58H92.839ZM94.879 43.599V45.537H92.873V43.599H94.879ZM106.082 47.407V46.489H103.43C103.175 46.064 102.937 45.622 102.767 45.146H105.606V44.245H103.685C103.991 43.803 104.331 43.191 104.671 42.613L103.6 42.307C103.396 42.817 103.022 43.616 102.699 44.143L102.988 44.245H101.033C101.203 43.633 101.356 42.987 101.458 42.29L100.914 42.239H101.917V41.015H105.997V39.961H101.917V38.771H100.659V39.961H96.256V38.771H95.015V39.961H91.037V41.015H95.015V42.273H96.256V41.015H100.659V42.222L100.37 42.188C100.268 42.919 100.115 43.616 99.928 44.245H98.551L99.095 44.058C98.993 43.565 98.636 42.868 98.262 42.358L97.344 42.647C97.667 43.14 97.99 43.769 98.109 44.245H96.885V45.146H99.622C99.435 45.622 99.214 46.081 98.959 46.489H96.409V47.407H98.296C97.667 48.155 96.902 48.767 95.967 49.243V42.579H91.802V47.101C91.802 49.107 91.7 51.793 90.612 53.748C90.867 53.867 91.343 54.156 91.513 54.343C92.278 53.017 92.618 51.249 92.771 49.6H94.879V53C94.879 53.204 94.811 53.255 94.641 53.255C94.471 53.272 93.91 53.272 93.281 53.255C93.434 53.51 93.587 53.986 93.621 54.258C94.522 54.258 95.1 54.241 95.491 54.088C95.848 53.901 95.967 53.578 95.967 53.017V49.277C96.205 49.481 96.562 49.889 96.698 50.093C97.089 49.872 97.463 49.617 97.803 49.345C98.228 49.838 98.653 50.433 98.84 50.875L99.69 50.382C99.503 49.906 98.976 49.209 98.483 48.75C98.908 48.342 99.282 47.9 99.622 47.407H102.852C103.209 47.951 103.634 48.444 104.11 48.852L103.685 48.631C103.379 49.141 102.784 49.906 102.342 50.365L103.09 50.79C103.532 50.382 104.059 49.787 104.552 49.209C104.926 49.481 105.334 49.719 105.759 49.906C105.912 49.617 106.235 49.209 106.456 49.022C105.555 48.682 104.773 48.121 104.144 47.407H106.082ZM113.511 47.696C113.222 47.237 111.947 45.316 111.471 44.687V43.616H113.409V42.443H111.471V38.771H110.315V42.443H107.935V43.616H110.179C109.686 45.928 108.649 48.58 107.595 49.991C107.799 50.28 108.105 50.756 108.241 51.079C109.023 49.974 109.754 48.189 110.315 46.336V54.275H111.471V46.183C111.981 47.033 112.576 48.087 112.814 48.631L113.511 47.696ZM116.945 50.042C115.398 50.892 113.8 51.759 112.729 52.303L113.324 53.357C114.48 52.711 115.925 51.878 117.285 51.079L116.945 50.042ZM113.953 47.764C114.599 48.461 115.33 49.413 115.653 50.042L116.571 49.396C116.231 48.784 115.483 47.866 114.82 47.203L113.953 47.764ZM120.668 50.127C121.365 49.515 122.283 48.648 122.98 47.815L122.011 47.135C121.501 47.832 120.6 48.801 119.92 49.413C119.512 48.733 119.155 48.002 118.9 47.203V46.523H123.184V45.452H118.9V44.143H122.572V43.157H118.9V41.95H122.946V40.913H120.702C121.025 40.403 121.399 39.74 121.756 39.111L120.515 38.754C120.294 39.366 119.869 40.284 119.529 40.862L119.682 40.913H116.724L117.03 40.794C116.86 40.267 116.418 39.434 116.01 38.839L115.024 39.162C115.33 39.706 115.687 40.386 115.874 40.913H113.749V41.95H117.676V43.157H114.242V44.143H117.676V45.452H113.392V46.523H117.676V52.881C117.676 53.102 117.625 53.17 117.404 53.17C117.183 53.187 116.452 53.187 115.704 53.17C115.874 53.476 116.01 54.003 116.061 54.326C117.115 54.326 117.88 54.309 118.322 54.105C118.764 53.901 118.9 53.561 118.9 52.881V49.6C119.818 51.351 121.076 52.779 122.674 53.578C122.861 53.255 123.235 52.796 123.49 52.558C122.113 51.997 120.974 50.994 120.124 49.719L120.668 50.127ZM135.815 46.54C135.815 49.855 137.158 52.558 139.198 54.632L140.218 54.105C138.263 52.082 137.056 49.566 137.056 46.54C137.056 43.514 138.263 40.998 140.218 38.975L139.198 38.448C137.158 40.522 135.815 43.225 135.815 46.54ZM153.24 45.197V44.585H155.11C155.858 44.585 156.487 44.619 156.674 44.636V43.208C156.436 43.242 155.858 43.293 155.11 43.293H153.24V41.168C153.24 40.505 153.308 39.944 153.325 39.774H151.795C151.829 39.944 151.88 40.505 151.88 41.168V43.293H147.035V41.117C147.035 40.522 147.103 40.046 147.12 39.876H145.607C145.658 40.267 145.675 40.76 145.675 41.117V43.293H143.839C143.125 43.293 142.292 43.208 142.139 43.174V44.653C142.343 44.636 143.108 44.585 143.839 44.585H145.675V47.339C145.675 47.985 145.624 48.716 145.607 48.886H147.103C147.086 48.716 147.035 47.968 147.035 47.339V44.585H151.88V45.299C151.88 50.059 150.333 51.521 147.239 52.711L148.378 53.782C152.271 52.048 153.24 49.719 153.24 45.197ZM163.729 51.504C163.729 52.133 163.695 52.966 163.61 53.51H165.259C165.191 52.949 165.157 52.031 165.157 51.504C165.157 51.011 165.157 48.444 165.14 45.894C167.027 46.489 169.968 47.628 171.821 48.631L172.399 47.186C170.614 46.285 167.384 45.061 165.14 44.381C165.14 43.31 165.14 42.324 165.14 41.61C165.14 41.1 165.208 40.369 165.259 39.842H163.593C163.695 40.369 163.729 41.134 163.729 41.61V51.504ZM184.197 39.383H182.565C182.633 39.91 182.65 40.301 182.65 40.658V42.239H178.893C178.298 42.239 177.805 42.222 177.312 42.171C177.363 42.545 177.363 43.123 177.363 43.48V46.472C177.363 46.795 177.346 47.254 177.312 47.56H178.791C178.74 47.288 178.723 46.846 178.723 46.54V43.497H188.226C188.073 44.959 187.529 47.016 186.611 48.461C185.574 50.059 183.704 51.334 182.004 51.878C181.46 52.082 180.814 52.269 180.236 52.354L181.341 53.629C184.452 52.779 186.798 51.045 188.073 48.818C189.025 47.186 189.518 45.061 189.739 43.701C189.807 43.378 189.909 42.936 189.994 42.681L189.076 42.103C188.855 42.188 188.532 42.239 187.903 42.239H184.095V40.658C184.095 40.301 184.112 39.91 184.197 39.383ZM204.24 45.197V44.585H206.11C206.858 44.585 207.487 44.619 207.674 44.636V43.208C207.436 43.242 206.858 43.293 206.11 43.293H204.24V41.168C204.24 40.505 204.308 39.944 204.325 39.774H202.795C202.829 39.944 202.88 40.505 202.88 41.168V43.293H198.035V41.117C198.035 40.522 198.103 40.046 198.12 39.876H196.607C196.658 40.267 196.675 40.76 196.675 41.117V43.293H194.839C194.125 43.293 193.292 43.208 193.139 43.174V44.653C193.343 44.636 194.108 44.585 194.839 44.585H196.675V47.339C196.675 47.985 196.624 48.716 196.607 48.886H198.103C198.086 48.716 198.035 47.968 198.035 47.339V44.585H202.88V45.299C202.88 50.059 201.333 51.521 198.239 52.711L199.378 53.782C203.271 52.048 204.24 49.719 204.24 45.197ZM218.129 39.791L216.548 39.281C216.446 39.723 216.191 40.335 216.021 40.624C215.29 42.154 213.607 44.619 210.683 46.37L211.856 47.254C213.709 46.013 215.137 44.5 216.174 43.072H221.92C221.563 44.619 220.526 46.812 219.2 48.376C217.653 50.178 215.528 51.725 212.417 52.643L213.641 53.748C216.837 52.575 218.86 51.011 220.407 49.124C221.92 47.288 222.974 44.993 223.433 43.276C223.518 43.004 223.688 42.613 223.824 42.375L222.685 41.678C222.413 41.797 222.039 41.848 221.58 41.848H216.973C217.126 41.61 217.262 41.372 217.381 41.134C217.534 40.811 217.84 40.233 218.129 39.791ZM229.927 40.335V41.746C230.386 41.712 230.93 41.695 231.457 41.695H238.121C238.699 41.695 239.277 41.712 239.685 41.746V40.335C239.277 40.403 238.682 40.42 238.138 40.42H231.457C230.913 40.42 230.369 40.403 229.927 40.335ZM240.926 44.823L239.957 44.211C239.77 44.313 239.413 44.347 239.022 44.347H230.063C229.604 44.347 229.026 44.313 228.397 44.245V45.673C229.009 45.639 229.655 45.622 230.063 45.622H239.09C238.784 46.846 238.104 48.291 237.067 49.379C235.622 50.909 233.497 51.997 231.083 52.49L232.137 53.697C234.313 53.102 236.438 52.099 238.223 50.144C239.481 48.767 240.246 46.999 240.705 45.316C240.739 45.197 240.841 44.976 240.926 44.823ZM248.185 46.54C248.185 43.225 246.842 40.522 244.802 38.448L243.782 38.975C245.737 40.998 246.944 43.514 246.944 46.54C246.944 49.566 245.737 52.082 243.782 54.105L244.802 54.632C246.842 52.558 248.185 49.855 248.185 46.54Z" fill="#22262B"/>
<path d="M24.639 75.497V76.576C24.977 76.55 25.406 76.537 25.835 76.537H30.32C30.697 76.537 31.152 76.55 31.529 76.576V75.497C31.152 75.549 30.697 75.575 30.32 75.575H25.822C25.406 75.575 25.016 75.536 24.639 75.497ZM23.105 78.76V79.839C23.456 79.813 23.833 79.813 24.223 79.813H28.123C28.084 81.048 27.941 82.14 27.369 83.037C26.862 83.856 25.926 84.61 24.912 85.026L25.874 85.741C26.979 85.169 27.967 84.233 28.435 83.375C28.955 82.4 29.163 81.217 29.202 79.813H32.738C33.05 79.813 33.466 79.826 33.752 79.839V78.76C33.44 78.812 33.011 78.825 32.738 78.825H24.223C23.82 78.825 23.456 78.799 23.105 78.76ZM32.205 74.444L31.516 74.73C31.867 75.224 32.309 76.004 32.569 76.537L33.271 76.225C33.011 75.692 32.53 74.899 32.205 74.444ZM33.635 73.924L32.946 74.21C33.323 74.704 33.739 75.432 34.025 76.004L34.727 75.692C34.48 75.211 33.973 74.392 33.635 73.924ZM36.326 79.371V80.645C36.729 80.606 37.418 80.58 38.133 80.58H45.27C45.855 80.58 46.401 80.632 46.661 80.645V79.371C46.375 79.397 45.907 79.436 45.257 79.436H38.133C37.405 79.436 36.716 79.397 36.326 79.371ZM54.968 74.795L53.785 74.418C53.707 74.756 53.499 75.211 53.369 75.445C52.758 76.628 51.432 78.578 49.196 79.969L50.067 80.645C51.523 79.644 52.68 78.37 53.512 77.2H57.906C57.646 78.266 56.983 79.67 56.138 80.801C55.228 80.164 54.253 79.54 53.395 79.046L52.693 79.761C53.525 80.281 54.513 80.957 55.449 81.633C54.279 82.894 52.615 84.09 50.418 84.766L51.354 85.572C53.551 84.753 55.15 83.557 56.307 82.27C56.84 82.699 57.334 83.102 57.724 83.453L58.491 82.556C58.075 82.218 57.555 81.815 57.009 81.412C57.997 80.086 58.699 78.565 59.037 77.369C59.115 77.161 59.232 76.849 59.349 76.667L58.491 76.147C58.27 76.225 57.984 76.277 57.633 76.277H54.11C54.214 76.121 54.305 75.965 54.383 75.809C54.513 75.575 54.747 75.133 54.968 74.795ZM62.6504 85.0635C63.0566 85.0635 63.374 84.7461 63.374 84.3398C63.374 83.9336 63.0566 83.6162 62.6504 83.6162C62.2441 83.6162 61.9268 83.9336 61.9268 84.3398C61.9268 84.7461 62.2441 85.0635 62.6504 85.0635ZM62.6504 80.3916C63.0566 80.3916 63.374 80.0742 63.374 79.668C63.374 79.2617 63.0566 78.9443 62.6504 78.9443C62.2441 78.9443 61.9268 79.2617 61.9268 79.668C61.9268 80.0742 62.2441 80.3916 62.6504 80.3916Z" fill="#2F3842"/>
<path d="M89 80C89 75.5817 85.4183 72 81 72C76.5817 72 73 75.5817 73 80C73 83.993 75.9255 87.3027 79.75 87.9028V82.3125H77.7188V80H79.75V78.2375C79.75 76.2325 80.9444 75.125 82.7717 75.125C83.6467 75.125 84.5625 75.2812 84.5625 75.2812V77.25H83.5538C82.56 77.25 82.25 77.8667 82.25 78.5V80H84.4688L84.1141 82.3125H82.25V87.9028C86.0745 87.3027 89 83.993 89 80Z" fill="#427DF2"/>
<path d="M103.843 85H105.042L101.666 75.8403H100.536L97.1587 85H98.3584L99.2788 82.3784H102.922L103.843 85ZM101.082 77.2305H101.12L102.586 81.4072H99.6152L101.082 77.2305ZM109.124 78.2842C108.166 78.2842 107.397 78.7729 106.991 79.5156H106.966V78.3984H105.918V87.2026H107.023V83.9272H107.048C107.442 84.6509 108.204 85.1143 109.149 85.1143C110.812 85.1143 111.949 83.7686 111.949 81.6992C111.949 79.6299 110.806 78.2842 109.124 78.2842ZM108.908 84.1431C107.778 84.1431 107.017 83.1719 107.017 81.6992C107.017 80.2329 107.778 79.2554 108.908 79.2554C110.083 79.2554 110.819 80.2075 110.819 81.6992C110.819 83.1973 110.083 84.1431 108.908 84.1431ZM116.271 78.2842C115.313 78.2842 114.545 78.7729 114.139 79.5156H114.113V78.3984H113.066V87.2026H114.17V83.9272H114.196C114.589 84.6509 115.351 85.1143 116.297 85.1143C117.96 85.1143 119.096 83.7686 119.096 81.6992C119.096 79.6299 117.954 78.2842 116.271 78.2842ZM116.056 84.1431C114.926 84.1431 114.164 83.1719 114.164 81.6992C114.164 80.2329 114.926 79.2554 116.056 79.2554C117.23 79.2554 117.966 80.2075 117.966 81.6992C117.966 83.1973 117.23 84.1431 116.056 84.1431ZM122.879 85H123.984V81.1152C123.984 79.998 124.663 79.2617 125.704 79.2617C126.72 79.2617 127.221 79.8457 127.221 80.9121V85H128.326V80.7153C128.326 79.2173 127.488 78.2842 126.041 78.2842C125.019 78.2842 124.314 78.7412 123.946 79.4521H123.92V78.3984H122.879V85ZM131.912 84.1748C131.119 84.1748 130.592 83.7622 130.592 83.1338C130.592 82.5117 131.1 82.1182 131.988 82.061L133.753 81.9531V82.4927C133.753 83.4448 132.953 84.1748 131.912 84.1748ZM131.665 85.1143C132.553 85.1143 133.391 84.6191 133.785 83.8638H133.81V85H134.857V80.436C134.857 79.1221 133.88 78.2842 132.331 78.2842C130.77 78.2842 129.792 79.1602 129.716 80.3027H130.782C130.922 79.6553 131.455 79.2554 132.306 79.2554C133.22 79.2554 133.753 79.7378 133.753 80.5439V81.0962L131.861 81.2041C130.338 81.293 129.468 82.0039 129.468 83.1338C129.468 84.3208 130.351 85.1143 131.665 85.1143ZM136.26 85H137.365V80.8613C137.365 79.9473 138 79.2617 138.875 79.2617C139.694 79.2617 140.228 79.7822 140.228 80.5757V85H141.332V80.8042C141.332 79.9092 141.948 79.2617 142.824 79.2617C143.693 79.2617 144.195 79.7949 144.195 80.6963V85H145.299V80.4424C145.299 79.1348 144.455 78.2842 143.147 78.2842C142.221 78.2842 141.446 78.7539 141.078 79.541H141.053C140.767 78.7412 140.101 78.2842 139.199 78.2842C138.311 78.2842 137.638 78.7539 137.327 79.4521H137.301V78.3984H136.26V85ZM149.355 79.2427C150.396 79.2427 151.088 80.0298 151.114 81.1343H147.527C147.597 80.0361 148.321 79.2427 149.355 79.2427ZM151.088 83.1084C150.904 83.7305 150.289 84.1558 149.451 84.1558C148.264 84.1558 147.521 83.3242 147.521 82.061V81.9976H152.256V81.5786C152.256 79.5791 151.158 78.2842 149.375 78.2842C147.553 78.2842 146.385 79.6743 146.385 81.7246C146.385 83.8003 147.534 85.1143 149.425 85.1143C150.866 85.1143 151.983 84.2637 152.174 83.1084H151.088Z" fill="#22262B"/>
<path d="M89 104C89 99.5817 85.4183 96 81 96C76.5817 96 73 99.5817 73 104C73 107.993 75.9255 111.303 79.75 111.903V106.312H77.7188V104H79.75V102.238C79.75 100.233 80.9444 99.125 82.7717 99.125C83.6467 99.125 84.5625 99.2812 84.5625 99.2812V101.25H83.5538C82.56 101.25 82.25 101.867 82.25 102.5V104H84.4688L84.1141 106.312H82.25V111.903C86.0745 111.303 89 107.993 89 104Z" fill="#427DF2"/>
<path d="M103.843 109H105.042L101.666 99.8403H100.536L97.1587 109H98.3584L99.2788 106.378H102.922L103.843 109ZM101.082 101.23H101.12L102.586 105.407H99.6152L101.082 101.23ZM109.124 102.284C108.166 102.284 107.397 102.773 106.991 103.516H106.966V102.398H105.918V111.203H107.023V107.927H107.048C107.442 108.651 108.204 109.114 109.149 109.114C110.812 109.114 111.949 107.769 111.949 105.699C111.949 103.63 110.806 102.284 109.124 102.284ZM108.908 108.143C107.778 108.143 107.017 107.172 107.017 105.699C107.017 104.233 107.778 103.255 108.908 103.255C110.083 103.255 110.819 104.208 110.819 105.699C110.819 107.197 110.083 108.143 108.908 108.143ZM116.271 102.284C115.313 102.284 114.545 102.773 114.139 103.516H114.113V102.398H113.066V111.203H114.17V107.927H114.196C114.589 108.651 115.351 109.114 116.297 109.114C117.96 109.114 119.096 107.769 119.096 105.699C119.096 103.63 117.954 102.284 116.271 102.284ZM116.056 108.143C114.926 108.143 114.164 107.172 114.164 105.699C114.164 104.233 114.926 103.255 116.056 103.255C117.23 103.255 117.966 104.208 117.966 105.699C117.966 107.197 117.23 108.143 116.056 108.143ZM122.879 109H123.984V105.115C123.984 103.998 124.663 103.262 125.704 103.262C126.72 103.262 127.221 103.846 127.221 104.912V109H128.326V104.715C128.326 103.217 127.488 102.284 126.041 102.284C125.019 102.284 124.314 102.741 123.946 103.452H123.92V102.398H122.879V109ZM131.912 108.175C131.119 108.175 130.592 107.762 130.592 107.134C130.592 106.512 131.1 106.118 131.988 106.061L133.753 105.953V106.493C133.753 107.445 132.953 108.175 131.912 108.175ZM131.665 109.114C132.553 109.114 133.391 108.619 133.785 107.864H133.81V109H134.857V104.436C134.857 103.122 133.88 102.284 132.331 102.284C130.77 102.284 129.792 103.16 129.716 104.303H130.782C130.922 103.655 131.455 103.255 132.306 103.255C133.22 103.255 133.753 103.738 133.753 104.544V105.096L131.861 105.204C130.338 105.293 129.468 106.004 129.468 107.134C129.468 108.321 130.351 109.114 131.665 109.114ZM136.26 109H137.365V104.861C137.365 103.947 138 103.262 138.875 103.262C139.694 103.262 140.228 103.782 140.228 104.576V109H141.332V104.804C141.332 103.909 141.948 103.262 142.824 103.262C143.693 103.262 144.195 103.795 144.195 104.696V109H145.299V104.442C145.299 103.135 144.455 102.284 143.147 102.284C142.221 102.284 141.446 102.754 141.078 103.541H141.053C140.767 102.741 140.101 102.284 139.199 102.284C138.311 102.284 137.638 102.754 137.327 103.452H137.301V102.398H136.26V109ZM149.355 103.243C150.396 103.243 151.088 104.03 151.114 105.134H147.527C147.597 104.036 148.321 103.243 149.355 103.243ZM151.088 107.108C150.904 107.73 150.289 108.156 149.451 108.156C148.264 108.156 147.521 107.324 147.521 106.061V105.998H152.256V105.579C152.256 103.579 151.158 102.284 149.375 102.284C147.553 102.284 146.385 103.674 146.385 105.725C146.385 107.8 147.534 109.114 149.425 109.114C150.866 109.114 151.983 108.264 152.174 107.108H151.088Z" fill="#22262B"/>
<line x1="6.5" y1="125.5" x2="348.5" y2="125.5" stroke="#F8F8F9" stroke-linecap="round"/>
<g clip-path="url(#clip0)">
<path d="M37.8815 158H24.1185C23.5273 158 23.0481 157.521 23.0481 156.93V155.441L38.9519 152.551V156.93C38.9519 157.521 38.4727 158 37.8815 158Z" fill="#BAC2CD"/>
<path d="M34.9696 156.929H24.1202C23.5281 156.929 23.0481 156.449 23.0481 155.857V142.562C23.0481 141.97 23.5281 141.49 24.1202 141.49H37.8797C38.4718 141.49 38.9519 141.97 38.9519 142.562V152.947C38.9519 153.232 38.3037 153.504 38.1026 153.705L35.7277 156.08C35.5267 156.281 35.254 156.929 34.9696 156.929Z" fill="#F1F5F9"/>
<path d="M34.9647 156.929C35.249 156.929 35.5217 156.816 35.7228 156.615L38.6379 153.7C38.8389 153.499 38.9519 153.227 38.9519 152.942V152.508C38.9519 152.993 38.5586 153.386 38.0735 153.386H36.2872C35.8021 153.386 35.4088 153.78 35.4088 154.265V156.051C35.4088 156.536 35.0155 156.929 34.5303 156.929H34.9647V156.929Z" fill="#DDE3EF"/>
<path d="M38.9518 142.561V145.314H23.0483V142.561C23.0483 141.97 23.5274 141.49 24.1186 141.49H37.8814C38.4726 141.49 38.9518 141.97 38.9518 142.561Z" fill="#61B3FF"/>
<path d="M26.0782 143.358C25.874 143.358 25.7007 143.358 25.553 143.358C25.1041 143.358 24.7391 142.993 24.7391 142.545V141.49H25.2743V142.545C25.2743 142.698 25.3992 142.823 25.553 142.823C25.7007 142.823 26.2259 143.358 26.0782 143.358Z" fill="#519BDF"/>
<path d="M35.7991 143.358C35.7991 143.358 35.4217 143.358 35.2737 143.358C34.8252 143.358 34.4602 142.993 34.4602 142.545V141.49H34.9954V142.545C34.9954 142.698 35.1203 142.823 35.2737 142.823C35.4217 142.823 35.7991 143.211 35.7991 143.358Z" fill="#519BDF"/>
<path d="M26.4795 141.49V140.814C26.4795 140.66 26.3546 140.535 26.201 140.535H26.0781C25.9245 140.535 25.7996 140.66 25.7996 140.814V142.545C25.7996 142.698 25.9245 142.823 26.0781 142.823C26.2259 142.823 26.3457 142.943 26.3457 143.091C26.3457 143.239 26.2259 143.359 26.0781 143.359C25.6294 143.359 25.2644 142.994 25.2644 142.545V140.814C25.2644 140.365 25.6294 140 26.0781 140H26.201C26.6497 140 27.0147 140.365 27.0147 140.814V141.49H26.4795Z" fill="#554E56"/>
<path d="M36.2005 141.49V140.814C36.2005 140.66 36.0755 140.535 35.9219 140.535H35.7991C35.6455 140.535 35.5205 140.66 35.5205 140.814V142.545C35.5205 142.698 35.6455 142.823 35.7991 142.823C35.9469 142.823 36.0667 142.943 36.0667 143.091C36.0667 143.239 35.9469 143.359 35.7991 143.359C35.3504 143.359 34.9854 142.994 34.9854 142.545V140.814C34.9854 140.365 35.3504 140 35.7991 140H35.9219C36.3706 140 36.7357 140.365 36.7357 140.814V141.49H36.2005Z" fill="#554E56"/>
<path d="M26.1828 148.703H24.9085C24.7678 148.703 24.6537 148.589 24.6537 148.448V147.174C24.6537 147.033 24.7678 146.919 24.9085 146.919H26.1828C26.3235 146.919 26.4376 147.033 26.4376 147.174V148.448C26.4376 148.589 26.3235 148.703 26.1828 148.703Z" fill="#D0E8FF"/>
<path d="M29.819 148.703H28.5448C28.404 148.703 28.2899 148.589 28.2899 148.448V147.174C28.2899 147.033 28.404 146.919 28.5448 146.919H29.819C29.9598 146.919 30.0739 147.033 30.0739 147.174V148.448C30.0739 148.589 29.9598 148.703 29.819 148.703Z" fill="#D0E8FF"/>
<path d="M33.4553 148.703H32.1811C32.0403 148.703 31.9262 148.589 31.9262 148.448V147.174C31.9262 147.033 32.0403 146.919 32.1811 146.919H33.4553C33.596 146.919 33.7102 147.033 33.7102 147.174V148.448C33.7102 148.589 33.596 148.703 33.4553 148.703Z" fill="#D0E8FF"/>
<path d="M37.0915 148.703H35.8173C35.6765 148.703 35.5624 148.589 35.5624 148.448V147.174C35.5624 147.033 35.6765 146.919 35.8173 146.919H37.0915C37.2323 146.919 37.3464 147.033 37.3464 147.174V148.448C37.3464 148.589 37.2323 148.703 37.0915 148.703Z" fill="#D0E8FF"/>
<path d="M26.1828 152.012H24.9085C24.7678 152.012 24.6537 151.898 24.6537 151.758V150.483C24.6537 150.343 24.7678 150.229 24.9085 150.229H26.1828C26.3235 150.229 26.4376 150.343 26.4376 150.483V151.758C26.4376 151.898 26.3235 152.012 26.1828 152.012Z" fill="#D0E8FF"/>
<path d="M29.819 152.012H28.5448C28.404 152.012 28.2899 151.898 28.2899 151.758V150.483C28.2899 150.343 28.404 150.229 28.5448 150.229H29.819C29.9598 150.229 30.0739 150.343 30.0739 150.483V151.758C30.0739 151.898 29.9598 152.012 29.819 152.012Z" fill="#D0E8FF"/>
<path d="M33.4553 152.012H32.1811C32.0403 152.012 31.9262 151.898 31.9262 151.758V150.483C31.9262 150.343 32.0403 150.229 32.1811 150.229H33.4553C33.596 150.229 33.7102 150.343 33.7102 150.483V151.758C33.7102 151.898 33.596 152.012 33.4553 152.012Z" fill="#D0E8FF"/>
<path d="M37.0915 152.093H35.8173C35.6765 152.093 35.5624 151.978 35.5624 151.838V150.563C35.5624 150.423 35.6765 150.309 35.8173 150.309H37.0915C37.2323 150.309 37.3464 150.423 37.3464 150.563V151.838C37.3464 151.978 37.2323 152.093 37.0915 152.093Z" fill="#D0E8FF"/>
<path d="M26.1828 155.323H24.9085C24.7678 155.323 24.6537 155.209 24.6537 155.068V153.794C24.6537 153.653 24.7678 153.539 24.9085 153.539H26.1828C26.3235 153.539 26.4376 153.653 26.4376 153.794V155.068C26.4376 155.209 26.3235 155.323 26.1828 155.323Z" fill="#D0E8FF"/>
<path d="M29.819 155.323H28.5448C28.404 155.323 28.2899 155.209 28.2899 155.068V153.794C28.2899 153.653 28.404 153.539 28.5448 153.539H29.819C29.9598 153.539 30.0739 153.653 30.0739 153.794V155.068C30.0739 155.209 29.9598 155.323 29.819 155.323Z" fill="#D0E8FF"/>
<path d="M33.4553 155.323H32.1811C32.0403 155.323 31.9262 155.209 31.9262 155.068V153.794C31.9262 153.653 32.0403 153.539 32.1811 153.539H33.4553C33.596 153.539 33.7102 153.653 33.7102 153.794V155.068C33.7102 155.209 33.596 155.323 33.4553 155.323Z" fill="#D0E8FF"/>
</g>
<path d="M55.0786 154H56.1831V144.84H55.0659L52.6284 146.592V147.798L55.0532 146.053H55.0786V154ZM63.2497 144.432H68.5017V152.102C68.5017 152.297 68.4237 152.336 68.2677 152.349C68.0857 152.349 67.4877 152.349 66.8507 152.336C66.9677 152.57 67.0977 152.934 67.1237 153.168C68.0467 153.168 68.6057 153.155 68.9437 153.012C69.2687 152.869 69.3987 152.609 69.3987 152.115V143.626H62.3527V146.98C62.3527 148.631 62.2617 150.906 61.2477 152.518C61.4557 152.622 61.8457 152.869 62.0147 153.025C63.0807 151.296 63.2497 148.761 63.2497 146.98V144.432ZM63.7307 147.357V148.059H68.0077V147.357H66.2007V146.317H67.8777V145.602H66.2007V144.692H65.3817V145.602H63.8477V146.317H65.3817V147.357H63.7307ZM66.7727 149.489V150.945H64.8357V149.489H66.7727ZM64.8357 151.634H67.5527V148.8H64.0687V152.31H64.8357V151.634ZM61.1957 145.576C60.8317 144.926 59.9737 144.029 59.2067 143.418L58.4657 143.912C59.2197 144.549 60.0517 145.472 60.3897 146.122L61.1957 145.576ZM60.8967 148.215H58.4007V149.125H59.9997V152.479C59.4277 153.025 58.7907 153.571 58.2447 153.974L58.7517 154.871C59.3757 154.299 59.9607 153.753 60.5067 153.181C61.3127 154.208 62.4957 154.676 64.2117 154.741C65.6807 154.793 68.4887 154.767 69.9577 154.702C69.9967 154.429 70.1527 154 70.2697 153.792C68.6837 153.896 65.6547 153.935 64.1857 153.87C62.6647 153.805 61.5077 153.363 60.8967 152.388V148.215ZM75.7427 144.432V145.511H72.9347V144.432H75.7427ZM72.9347 147.37V146.226H75.7427V147.37H72.9347ZM76.6657 148.111V143.678H71.9727V155.001H72.9347V148.111H76.6657ZM78.7587 149.84V151.036H75.7037V149.84H78.7587ZM75.7037 153.025V151.764H78.7587V153.025H75.7037ZM79.6557 153.792V149.086H74.8327V154.442H75.7037V153.792H79.6557ZM78.7457 147.383V146.226H81.6577V147.383H78.7457ZM81.6577 144.432V145.511H78.7457V144.432H81.6577ZM82.6327 143.678H77.8227V148.124H81.6577V153.701C81.6577 153.935 81.5797 154.013 81.3587 154.013C81.1247 154.026 80.3317 154.039 79.5387 154C79.6817 154.26 79.8377 154.715 79.8767 154.988C80.9557 154.988 81.6447 154.975 82.0607 154.819C82.4897 154.65 82.6327 154.325 82.6327 153.714V143.678ZM97.9697 150.395C97.9697 152.604 98.5537 154.4 99.7725 155.949H100.699C99.7979 154.901 99.0933 152.47 99.0933 150.395C99.0933 148.319 99.7979 145.888 100.699 144.84H99.7725C98.5537 146.389 97.9697 148.186 97.9697 150.395ZM101.639 147.481V147.487H102.743V147.481C102.743 146.459 103.556 145.685 104.628 145.685C105.638 145.685 106.444 146.389 106.444 147.271C106.444 148.033 106.152 148.522 104.92 149.817L101.696 153.213V154H107.739V152.984H103.276V152.959L105.593 150.566C107.123 148.985 107.586 148.224 107.586 147.202C107.586 145.799 106.298 144.688 104.66 144.688C102.934 144.688 101.639 145.881 101.639 147.481ZM112.265 154.152C114.397 154.152 115.629 152.305 115.629 149.411C115.629 146.535 114.391 144.688 112.265 144.688C110.138 144.688 108.888 146.548 108.888 149.417C108.888 152.312 110.125 154.152 112.265 154.152ZM112.265 153.156C110.83 153.156 110.037 151.696 110.037 149.411C110.037 147.176 110.849 145.691 112.265 145.691C113.68 145.691 114.48 147.164 114.48 149.417C114.48 151.702 113.693 153.156 112.265 153.156ZM116.759 147.481V147.487H117.863V147.481C117.863 146.459 118.676 145.685 119.749 145.685C120.758 145.685 121.564 146.389 121.564 147.271C121.564 148.033 121.272 148.522 120.041 149.817L116.816 153.213V154H122.859V152.984H118.396V152.959L120.713 150.566C122.243 148.985 122.707 148.224 122.707 147.202C122.707 145.799 121.418 144.688 119.78 144.688C118.054 144.688 116.759 145.881 116.759 147.481ZM126.515 154H127.62V144.84H126.502L124.065 146.592V147.798L126.49 146.053H126.515V154ZM130.146 155.949L133.39 144.84H132.444L129.2 155.949H130.146ZM137.338 154.152C139.471 154.152 140.702 152.305 140.702 149.411C140.702 146.535 139.464 144.688 137.338 144.688C135.211 144.688 133.961 146.548 133.961 149.417C133.961 152.312 135.199 154.152 137.338 154.152ZM137.338 153.156C135.903 153.156 135.11 151.696 135.11 149.411C135.11 147.176 135.922 145.691 137.338 145.691C138.753 145.691 139.553 147.164 139.553 149.417C139.553 151.702 138.766 153.156 137.338 153.156ZM146.371 154H147.475V152.096H148.77V151.093H147.475V144.84H145.787C143.622 147.944 142.549 149.614 141.769 151.061V152.096H146.371V154ZM142.898 151.067C143.622 149.798 144.619 148.268 146.352 145.792H146.371V151.093H142.898V151.067ZM150.09 155.949L153.334 144.84H152.388L149.145 155.949H150.09ZM156.413 154H157.517V144.84H156.4L153.962 146.592V147.798L156.387 146.053H156.413V154ZM161.707 149.772H162.855C164.163 149.772 164.976 150.439 164.976 151.518C164.976 152.477 164.106 153.162 162.894 153.162C161.662 153.162 160.881 152.515 160.78 151.575H159.682C159.764 153.092 160.989 154.152 162.906 154.152C164.703 154.152 166.137 153.054 166.137 151.48C166.137 150.191 165.249 149.334 163.865 149.252V149.227C165.007 149.023 165.744 148.198 165.744 147.049C165.744 145.672 164.506 144.688 162.868 144.688C161.148 144.688 159.993 145.685 159.866 147.24H160.964C161.065 146.281 161.764 145.678 162.817 145.678C163.979 145.678 164.595 146.294 164.595 147.202C164.595 148.128 163.858 148.808 162.805 148.808H161.707V149.772ZM173.405 154.152C175.538 154.152 176.77 152.305 176.77 149.411C176.77 146.535 175.532 144.688 173.405 144.688C171.279 144.688 170.028 146.548 170.028 149.417C170.028 152.312 171.266 154.152 173.405 154.152ZM173.405 153.156C171.971 153.156 171.177 151.696 171.177 149.411C171.177 147.176 171.99 145.691 173.405 145.691C174.821 145.691 175.621 147.164 175.621 149.417C175.621 151.702 174.833 153.156 173.405 153.156ZM178.356 154H179.556L183.631 145.9V144.84H177.569V145.856H182.501V145.881L178.356 154ZM185.656 152.477C186.062 152.477 186.38 152.159 186.38 151.753C186.38 151.347 186.062 151.029 185.656 151.029C185.25 151.029 184.933 151.347 184.933 151.753C184.933 152.159 185.25 152.477 185.656 152.477ZM185.656 147.805C186.062 147.805 186.38 147.487 186.38 147.081C186.38 146.675 186.062 146.357 185.656 146.357C185.25 146.357 184.933 146.675 184.933 147.081C184.933 147.487 185.25 147.805 185.656 147.805ZM191.198 154.152C193.108 154.152 194.46 152.864 194.46 151.023C194.46 149.246 193.191 147.957 191.433 147.957C190.557 147.957 189.795 148.287 189.382 148.839H189.357L189.636 145.856H193.94V144.84H188.697L188.195 149.969H189.268C189.643 149.328 190.373 148.941 191.229 148.941C192.448 148.941 193.318 149.823 193.318 151.055C193.318 152.286 192.455 153.149 191.21 153.149C190.112 153.149 189.281 152.477 189.179 151.499H188.056C188.151 153.061 189.446 154.152 191.198 154.152ZM197.52 149.772H198.669C199.977 149.772 200.789 150.439 200.789 151.518C200.789 152.477 199.919 153.162 198.707 153.162C197.476 153.162 196.695 152.515 196.593 151.575H195.495C195.578 153.092 196.803 154.152 198.72 154.152C200.516 154.152 201.951 153.054 201.951 151.48C201.951 150.191 201.062 149.334 199.678 149.252V149.227C200.821 149.023 201.557 148.198 201.557 147.049C201.557 145.672 200.319 144.688 198.682 144.688C196.961 144.688 195.806 145.685 195.679 147.24H196.777C196.879 146.281 197.577 145.678 198.631 145.678C199.792 145.678 200.408 146.294 200.408 147.202C200.408 148.128 199.672 148.808 198.618 148.808H197.52V149.772ZM205.932 152.635C205.932 152.037 206.608 151.556 207.843 151.556C208.272 151.556 208.701 151.595 209.104 151.686C209.104 152.024 209.117 152.336 209.117 152.557C209.117 153.454 208.48 153.688 207.739 153.688C206.452 153.688 205.932 153.233 205.932 152.635ZM210.053 143.678H208.948C208.974 143.86 209 144.237 209 144.458C209 144.731 209 145.043 209 145.381C208.792 145.381 208.597 145.381 208.402 145.381C207.531 145.381 205.919 145.251 205.074 145.095L205.087 146.057C205.906 146.148 207.505 146.278 208.415 146.278C208.61 146.278 208.805 146.278 208.987 146.278C208.987 146.811 208.987 147.383 208.987 147.903C208.987 147.968 208.987 148.033 208.987 148.098C208.753 148.098 208.519 148.098 208.285 148.098C207.427 148.098 205.945 148.007 205.009 147.851L205.022 148.826C205.958 148.93 207.388 149.008 208.272 149.008C208.519 149.008 208.766 149.008 209.013 149.008C209.026 149.567 209.052 150.191 209.065 150.776C208.714 150.724 208.35 150.698 207.973 150.698C206.101 150.698 204.97 151.504 204.97 152.687C204.97 153.935 205.984 154.598 207.856 154.598C209.546 154.598 210.144 153.675 210.144 152.778C210.144 152.57 210.131 152.297 210.118 151.972C211.418 152.44 212.497 153.233 213.264 153.935L213.862 153.012C213.121 152.401 211.795 151.452 210.066 150.984C210.04 150.36 210.001 149.658 209.975 148.982C211.21 148.943 212.354 148.839 213.576 148.683L213.589 147.708C212.406 147.89 211.223 148.007 209.962 148.059C209.962 148.007 209.962 147.955 209.962 147.903C209.962 147.422 209.962 146.811 209.962 146.239C211.21 146.174 212.445 146.057 213.472 145.94L213.485 144.991C212.315 145.173 211.132 145.29 209.962 145.342C209.962 145.004 209.975 144.718 209.975 144.549C209.988 144.172 210.014 143.912 210.053 143.678ZM216.631 145.446L216.748 146.577C218.152 146.278 221.467 145.966 222.858 145.81C221.662 146.525 220.427 148.176 220.427 150.204C220.427 153.103 223.17 154.39 225.575 154.481L225.952 153.402C223.833 153.324 221.467 152.518 221.467 149.983C221.467 148.436 222.598 146.46 224.444 145.862C225.107 145.667 226.251 145.654 226.992 145.654V144.614C226.121 144.653 224.899 144.731 223.482 144.848C221.09 145.043 218.633 145.29 217.788 145.381C217.541 145.407 217.125 145.433 216.631 145.446ZM225.12 147.253L224.457 147.539C224.847 148.072 225.224 148.748 225.523 149.372L226.186 149.06C225.913 148.488 225.419 147.682 225.12 147.253ZM226.537 146.707L225.9 147.006C226.303 147.552 226.68 148.189 226.992 148.826L227.668 148.501C227.369 147.929 226.849 147.136 226.537 146.707ZM231.588 150.395C231.588 147.494 230.623 145.907 229.785 144.84H228.858C229.411 145.481 230.464 147.519 230.464 150.395C230.464 153.27 229.417 155.301 228.858 155.949H229.785C230.623 154.882 231.588 153.295 231.588 150.395Z" fill="black"/>
<path d="M0.0250388 27.5116C0.0250388 27.5116 -0.58462 30.7383 4.21269 30.7383L6 30.7383V16.7391C6 16.7391 0.0250388 16.4328 0.0250388 27.5116Z" fill="#33A16D"/>
<g filter="url(#filter0_d)">
<path d="M0.00492955 8.49921V27.8711C0.0742697 25.03 1.24315 23.9987 4.45261 23.9886L58.6973 23.9886C59.0897 23.9858 59.4766 23.8936 59.8297 23.7187C60.1827 23.5438 60.493 23.2906 60.7379 22.9776L66.6813 15.3845C67.0568 14.9045 67.2571 14.3062 67.2481 13.692C67.2391 13.0779 67.0212 12.486 66.6318 12.0177L60.7775 4.94029C60.5346 4.64545 60.2313 4.40849 59.889 4.24604C59.5468 4.0836 59.1738 3.99962 58.7964 4L4.45261 4C1.02522 4.02022 -0.0743163 5.19305 0.00492955 8.49921Z" fill="#2CD282"/>
</g>
<path d="M17.4846 16.2093C16.7566 17.1843 15.3006 18.3153 14.0266 18.9783C14.2606 19.1603 14.6116 19.4723 14.7936 19.6673C16.0936 18.9133 17.5626 17.7173 18.4856 16.5993L17.4846 16.2093ZM20.8126 16.6903C22.0346 17.6003 23.5946 18.8873 24.3616 19.6543L25.2716 19.0563C24.4526 18.2893 22.8406 17.0413 21.6446 16.1963L20.8126 16.6903ZM17.8356 11.4513H21.5276V14.5193H17.8356V11.4513ZM22.5156 14.5193V11.4513H25.0896V10.5153H22.5156V7.88932H21.5276V10.5153H17.8356V7.88932H16.8606V10.5153H14.3906V11.4513H16.8606V14.5193H13.8706V15.4553H25.5576V14.5193H22.5156ZM35.8926 14.0513H30.4716V12.7383H35.8926V14.0513ZM30.4716 16.2483V14.8833H35.8926V16.2483H30.4716ZM38.3626 10.3593V9.44932H31.7456C31.9406 8.98132 32.0966 8.48732 32.2526 8.00632L31.2906 7.77232C31.1346 8.33132 30.9396 8.89032 30.7186 9.44932H27.0526V10.3593H30.3156C29.4836 12.0753 28.3006 13.6353 26.7406 14.6883C26.9356 14.8703 27.2346 15.2213 27.3646 15.4293C28.1836 14.8573 28.8986 14.1553 29.5226 13.3883V19.6413H30.4716V17.0803H35.8926V18.4323C35.8926 18.6273 35.8146 18.6923 35.5936 18.7053C35.3596 18.7053 34.5796 18.7183 33.7216 18.6793C33.8516 18.9523 33.9946 19.3423 34.0336 19.6283C35.1386 19.6283 35.8666 19.6153 36.2956 19.4593C36.7116 19.3033 36.8416 19.0173 36.8416 18.4323V11.8673H30.5756C30.8616 11.3863 31.1216 10.8663 31.3686 10.3593H38.3626ZM46.1496 14.4803V11.0353H49.8806V14.4803H46.1496ZM41.4306 14.4803V11.0353H45.1486V14.4803H41.4306ZM46.1496 10.0863V7.77232H45.1486V10.0863H40.4816V16.2353H41.4306V15.4293H45.1486V19.6413H46.1496V15.4293H49.8806V16.1703H50.8686V10.0863H46.1496Z" fill="white"/>
<path d="M232.034 14.481V14.4873H233.139V14.481C233.139 13.459 233.951 12.6846 235.024 12.6846C236.033 12.6846 236.839 13.3892 236.839 14.2715C236.839 15.0332 236.547 15.522 235.316 16.8169L232.091 20.2129V21H238.134V19.9844H233.672V19.959L235.989 17.5659C237.519 15.9854 237.982 15.2236 237.982 14.2017C237.982 12.7988 236.693 11.688 235.056 11.688C233.329 11.688 232.034 12.8813 232.034 14.481ZM242.66 21.1523C244.793 21.1523 246.024 19.3052 246.024 16.4106C246.024 13.5352 244.787 11.688 242.66 11.688C240.534 11.688 239.283 13.5479 239.283 16.417C239.283 19.3115 240.521 21.1523 242.66 21.1523ZM242.66 20.1558C241.226 20.1558 240.432 18.6958 240.432 16.4106C240.432 14.1763 241.245 12.6909 242.66 12.6909C244.076 12.6909 244.875 14.1636 244.875 16.417C244.875 18.7021 244.088 20.1558 242.66 20.1558ZM247.154 14.481V14.4873H248.259V14.481C248.259 13.459 249.071 12.6846 250.144 12.6846C251.153 12.6846 251.959 13.3892 251.959 14.2715C251.959 15.0332 251.667 15.522 250.436 16.8169L247.211 20.2129V21H253.254V19.9844H248.792V19.959L251.109 17.5659C252.639 15.9854 253.102 15.2236 253.102 14.2017C253.102 12.7988 251.813 11.688 250.176 11.688C248.449 11.688 247.154 12.8813 247.154 14.481ZM256.911 21H258.015V11.8403H256.898L254.46 13.5923V14.7983L256.885 13.0527H256.911V21ZM260.542 22.9487L263.785 11.8403H262.839L259.596 22.9487H260.542ZM267.733 21.1523C269.866 21.1523 271.098 19.3052 271.098 16.4106C271.098 13.5352 269.86 11.688 267.733 11.688C265.607 11.688 264.356 13.5479 264.356 16.417C264.356 19.3115 265.594 21.1523 267.733 21.1523ZM267.733 20.1558C266.299 20.1558 265.505 18.6958 265.505 16.4106C265.505 14.1763 266.318 12.6909 267.733 12.6909C269.149 12.6909 269.949 14.1636 269.949 16.417C269.949 18.7021 269.162 20.1558 267.733 20.1558ZM276.766 21H277.871V19.0957H279.166V18.0928H277.871V11.8403H276.182C274.018 14.9443 272.945 16.6138 272.164 18.061V19.0957H276.766V21ZM273.294 18.0674C274.018 16.7979 275.014 15.2681 276.747 12.7925H276.766V18.0928H273.294V18.0674ZM280.486 22.9487L283.729 11.8403H282.784L279.54 22.9487H280.486ZM286.808 21H287.913V11.8403H286.795L284.358 13.5923V14.7983L286.783 13.0527H286.808V21ZM292.102 16.7725H293.251C294.559 16.7725 295.371 17.439 295.371 18.5181C295.371 19.4766 294.501 20.1621 293.289 20.1621C292.058 20.1621 291.277 19.5146 291.175 18.5752H290.077C290.16 20.0923 291.385 21.1523 293.302 21.1523C295.098 21.1523 296.533 20.0542 296.533 18.48C296.533 17.1914 295.644 16.3345 294.26 16.252V16.2266C295.403 16.0234 296.139 15.1982 296.139 14.0493C296.139 12.6719 294.901 11.688 293.264 11.688C291.543 11.688 290.388 12.6846 290.261 14.2397H291.359C291.461 13.2812 292.159 12.6782 293.213 12.6782C294.375 12.6782 294.99 13.2939 294.99 14.2017C294.99 15.1284 294.254 15.8076 293.2 15.8076H292.102V16.7725ZM303.801 21.1523C305.934 21.1523 307.165 19.3052 307.165 16.4106C307.165 13.5352 305.927 11.688 303.801 11.688C301.674 11.688 300.424 13.5479 300.424 16.417C300.424 19.3115 301.662 21.1523 303.801 21.1523ZM303.801 20.1558C302.366 20.1558 301.573 18.6958 301.573 16.4106C301.573 14.1763 302.385 12.6909 303.801 12.6909C305.216 12.6909 306.016 14.1636 306.016 16.417C306.016 18.7021 305.229 20.1558 303.801 20.1558ZM308.752 21H309.952L314.027 12.9004V11.8403H307.965V12.856H312.897V12.8813L308.752 21ZM316.052 19.4766C316.458 19.4766 316.775 19.1592 316.775 18.7529C316.775 18.3467 316.458 18.0293 316.052 18.0293C315.646 18.0293 315.328 18.3467 315.328 18.7529C315.328 19.1592 315.646 19.4766 316.052 19.4766ZM316.052 14.8047C316.458 14.8047 316.775 14.4873 316.775 14.0811C316.775 13.6748 316.458 13.3574 316.052 13.3574C315.646 13.3574 315.328 13.6748 315.328 14.0811C315.328 14.4873 315.646 14.8047 316.052 14.8047ZM321.593 21.1523C323.504 21.1523 324.856 19.8638 324.856 18.0229C324.856 16.2456 323.586 14.957 321.828 14.957C320.952 14.957 320.19 15.2871 319.778 15.8394H319.752L320.032 12.856H324.335V11.8403H319.092L318.591 16.9692H319.664C320.038 16.3281 320.768 15.9409 321.625 15.9409C322.844 15.9409 323.713 16.8232 323.713 18.0547C323.713 19.2861 322.85 20.1494 321.606 20.1494C320.508 20.1494 319.676 19.4766 319.575 18.499H318.451C318.546 20.0605 319.841 21.1523 321.593 21.1523ZM327.916 16.7725H329.064C330.372 16.7725 331.185 17.439 331.185 18.5181C331.185 19.4766 330.315 20.1621 329.103 20.1621C327.871 20.1621 327.09 19.5146 326.989 18.5752H325.891C325.973 20.0923 327.198 21.1523 329.115 21.1523C330.912 21.1523 332.346 20.0542 332.346 18.48C332.346 17.1914 331.458 16.3345 330.074 16.252V16.2266C331.216 16.0234 331.953 15.1982 331.953 14.0493C331.953 12.6719 330.715 11.688 329.077 11.688C327.357 11.688 326.202 12.6846 326.075 14.2397H327.173C327.274 13.2812 327.973 12.6782 329.026 12.6782C330.188 12.6782 330.804 13.2939 330.804 14.2017C330.804 15.1284 330.067 15.8076 329.014 15.8076H327.916V16.7725Z" fill="#838AA2"/>
<defs>
<filter id="filter0_d" x="0.000976562" y="4" width="67.2474" height="24.8711" filterUnits="userSpaceOnUse" color-interpolation-filters="sRGB">
<feFlood flood-opacity="0" result="BackgroundImageFix"/>
<feColorMatrix in="SourceAlpha" type="matrix" values="0 0 0 0 0 0 0 0 0 0 0 0 0 0 0 0 0 0 127 0" result="hardAlpha"/>
<feOffset dy="1"/>
<feColorMatrix type="matrix" values="0 0 0 0 0 0 0 0 0 0 0 0 0 0 0 0 0 0 0.25 0"/>
<feBlend mode="normal" in2="BackgroundImageFix" result="effect1_dropShadow"/>
<feBlend mode="normal" in="SourceGraphic" in2="effect1_dropShadow" result="shape"/>
</filter>
<clipPath id="clip0">
<rect width="18" height="18" fill="white" transform="translate(22 140)"/>
</clipPath>
</defs>
</svg>
