<svg width="24" height="18" viewBox="0 0 24 18" fill="none" xmlns="http://www.w3.org/2000/svg">
<path d="M23.5721 0.429071C23.0002 -0.142993 22.0743 -0.143039 21.5024 0.429025L7.68235 14.249L2.49768 9.06436C1.92576 8.49229 0.999928 8.49225 0.427958 9.06431C-0.142653 9.63497 -0.142653 10.5634 0.427958 11.134L6.64754 17.3536C7.21937 17.9254 8.14534 17.9255 8.71721 17.3536L23.5721 2.4987C24.1426 1.92809 24.1426 0.999588 23.5721 0.429071Z" fill="#61B3FF"/>
<path d="M23.572 0.429071C23.0001 -0.142992 22.0743 -0.143039 21.5023 0.429024L11.4146 10.5168V14.6561L23.572 2.4987C24.1426 1.92809 24.1426 0.999588 23.572 0.429071Z" fill="#61B3FF"/>
</svg>
