<svg width="24" height="24" viewBox="0 0 24 24" fill="none" xmlns="http://www.w3.org/2000/svg">
<!--<g clip-path="url(#clip0)">-->
<path d="M13.6611 4.9201H16.3104L12.2554 0.654297V3.50891C12.2554 4.28217 12.8825 4.9201 13.6611 4.9201Z" fill="#838AA2"/>
<path d="M16.3591 11.0781C12.7962 11.0781 9.89819 13.976 9.89819 17.539C9.89819 21.1019 12.7962 23.9999 16.3591 23.9999C19.9221 23.9999 22.8201 21.1019 22.8201 17.539C22.8201 13.976 19.9221 11.0781 16.3591 11.0781ZM20.1871 21.6534C20.1005 21.74 19.9924 21.7832 19.8789 21.7832C19.7707 21.7832 19.6572 21.74 19.576 21.6589L17.9217 20.0043C17.2838 20.5071 16.4726 20.81 15.5968 20.81C13.5261 20.81 11.8446 19.1339 11.8446 17.0686C11.8446 15.0034 13.5261 13.3272 15.5968 13.3272C17.6675 13.3272 19.349 15.0034 19.349 17.0686C19.349 17.9444 19.0463 18.7554 18.5325 19.3935L20.1871 21.0425C20.3546 21.2101 20.3546 21.4858 20.1871 21.6534Z" fill="#838AA2"/>
<path d="M15.5967 14.1978C14.0071 14.1978 12.7095 15.4899 12.7095 17.074C12.7095 18.6582 14.0018 19.9504 15.5967 19.9504C16.3807 19.9504 17.0943 19.6367 17.6134 19.1286C17.6187 19.1231 17.6242 19.1176 17.6295 19.1123C17.635 19.1068 17.6458 19.1015 17.6511 19.0907C18.1647 18.5716 18.4839 17.858 18.4839 17.074C18.4839 15.4846 17.1862 14.1978 15.5967 14.1978Z" fill="#838AA2"/>
<path d="M9.26569 15.6791H4.5672C4.32935 15.6791 4.1347 15.4847 4.1347 15.2466C4.1347 15.0088 4.32935 14.8141 4.5672 14.8141H9.55225C9.82782 14.1114 10.1955 13.5165 10.6498 12.9218H4.5672C4.32935 12.9218 4.1347 12.7273 4.1347 12.4893C4.1347 12.2514 4.32935 12.0568 4.5672 12.0568H11.4716C12.769 10.9213 14.4884 10.197 16.3645 10.197C16.5428 10.197 16.689 10.2131 16.9052 10.2294V5.78503H13.6611C12.4069 5.78503 11.3904 4.75781 11.3904 3.50885V0H3.09668C2.02606 0 1.17188 0.875793 1.17188 1.95172V18.4528C1.17188 19.5287 2.02606 20.3829 3.09668 20.3829H9.61157C9.23859 19.5179 9.03314 18.5447 9.03314 17.5283C9.02765 16.8904 9.11426 16.2739 9.26569 15.6791ZM4.5672 9.35339H10.0443C10.2821 9.35339 10.4767 9.54803 10.4767 9.78607C10.4767 10.0239 10.2821 10.2186 10.0443 10.2186H4.5672C4.32935 10.2186 4.1347 10.0239 4.1347 9.78607C4.1347 9.54803 4.32935 9.35339 4.5672 9.35339Z" fill="#838AA2"/>
<!--</g>-->
<defs>
<clipPath id="clip0">
<rect width="24" height="24" fill="white"/>
</clipPath>
</defs>
</svg>
